<?xml version="1.0" encoding="UTF-8" standalone="no"?>
<!-- Created with Inkscape (http://www.inkscape.org/) -->

<svg
   xmlns:dc="http://purl.org/dc/elements/1.1/"
   xmlns:cc="http://creativecommons.org/ns#"
   xmlns:rdf="http://www.w3.org/1999/02/22-rdf-syntax-ns#"
   xmlns:svg="http://www.w3.org/2000/svg"
   xmlns="http://www.w3.org/2000/svg"
   xmlns:sodipodi="http://sodipodi.sourceforge.net/DTD/sodipodi-0.dtd"
   xmlns:inkscape="http://www.inkscape.org/namespaces/inkscape"
   width="1000.188"
   height="1000.188"
   id="svg5395"
   version="1.1"
   inkscape:version="0.92.2 (5c3e80d, 2017-08-06)"
   sodipodi:docname="Lego_Bright.svg">
  <defs
     id="defs5397" />
  <sodipodi:namedview
     id="base"
     pagecolor="#ffffff"
     bordercolor="#666666"
     borderopacity="1.0"
     inkscape:pageopacity="0.0"
     inkscape:pageshadow="2"
     inkscape:zoom="0.5"
     inkscape:cx="641.12244"
     inkscape:cy="619.26949"
     inkscape:document-units="px"
     inkscape:current-layer="layer1"
     showgrid="false"
     fit-margin-left="0.5"
     fit-margin-top="0.5"
     fit-margin-bottom="0.5"
     fit-margin-right="0.5"
     inkscape:window-width="1366"
     inkscape:window-height="705"
     inkscape:window-x="-8"
     inkscape:window-y="-8"
     inkscape:window-maximized="1" />
  <metadata
     id="metadata5400">
    <rdf:RDF>
      <cc:Work
         rdf:about="">
        <dc:format>image/svg+xml</dc:format>
        <dc:type
           rdf:resource="http://purl.org/dc/dcmitype/StillImage" />
        <dc:title />
      </cc:Work>
    </rdf:RDF>
  </metadata>
  <g
     inkscape:label="Layer 1"
     inkscape:groupmode="layer"
     id="layer1"
     transform="translate(-390,334.96864)">
    <path
       id="path4788"
       style="fill:#ffffff;fill-opacity:1;fill-rule:nonzero;stroke:none"
       d="m 396.80231,658.57652 986.83119,0 0,-986.86663 -986.83119,0 0,986.86663 z"
       inkscape:connector-curvature="0" />
    <g
       transform="matrix(17.714353,0,0,-17.714353,1317.9541,81.89465)"
       id="g4790"
       style="fill:#ffff00;fill-opacity:1">
      <path
         id="path4792"
         style="fill:#fff200;fill-opacity:1;fill-rule:nonzero;stroke:none"
         d="m 0,0 c -0.091,-1.737 -0.645,-3.899 -1.13,-5.344 -1.959,-5.823 -4.229,-9.431 -9.489,-9.431 -1.55,0 -4.297,0.413 -5.309,3.168 l -0.24,0.653 -0.43,-0.546 c -1.647,-2.083 -4.089,-3.285 -6.706,-3.297 -2.007,-0.01 -3.619,0.662 -4.663,1.945 l -0.286,0.351 -0.304,-0.336 c -1.114,-1.23 -3.055,-1.938 -5.325,-1.938 -1.781,0 -3.32,0.607 -4.332,1.705 l -0.276,0.303 -0.287,-0.292 c -1.125,-1.134 -2.898,-1.709 -5.128,-1.656 -2.705,0.064 -4.352,1.575 -4.405,4.039 -0.083,3.804 3.597,11.8 5.121,14.233 0.989,1.623 2.348,2.411 4.157,2.411 1.233,0 2.074,-0.258 2.576,-0.788 0.455,-0.481 0.545,-0.889 0.586,-1.867 l 0.052,-1.264 0.668,1.076 c 1.613,2.603 4.29,2.96 6.942,2.96 1.844,0 3.453,-0.678 4.101,-1.726 l 0.236,-0.387 0.346,0.295 c 1.367,1.161 3.294,1.8 5.43,1.8 2.33,0 4.022,-0.579 5.033,-1.721 0.228,-0.261 0.381,-0.442 0.593,-0.885 l 0.258,-0.543 0.389,0.459 c 1.479,1.75 3.498,2.635 6.003,2.635 1.983,0 3.49,-0.525 4.475,-1.567 C -0.108,3.142 0.07,1.309 0,0 m -52.001,-32.554 55.708,0 0,55.71 -55.708,0 0,-55.71 z"
         inkscape:connector-curvature="0" />
    </g>
    <g
       transform="matrix(17.714353,0,0,-17.714353,1345.7638,119.78206)"
       id="g4794"
       style="fill:#ff0000;fill-opacity:1">
      <path
         id="path4796"
         style="fill:#ed1b23;fill-opacity:1;fill-rule:nonzero;stroke:none"
         d="m 0,0 c -0.252,-2.027 -1.623,-5.782 -2.352,-7.285 -1.952,-4.022 -4.563,-7.116 -9.591,-7.116 -2.685,0 -4.895,0.857 -6.186,2.503 -1.892,-1.657 -4.234,-2.526 -6.755,-2.526 -1.944,0 -3.659,0.561 -4.967,1.598 -1.446,-1.017 -3.395,-1.584 -5.555,-1.584 -1.806,0 -3.43,0.494 -4.701,1.409 -1.405,-0.932 -3.248,-1.395 -5.41,-1.344 -3.599,0.086 -6.084,2.368 -6.154,5.681 -0.094,4.401 3.614,12.459 5.359,15.25 1.308,2.148 3.304,3.303 5.749,3.303 2.656,0 3.618,-0.757 4.09,-1.723 2.049,1.74 4.764,1.84 6.695,1.84 2.134,0 3.473,-0.568 4.614,-1.473 1.572,0.943 3.374,1.433 5.525,1.433 2.746,0 4.788,-0.639 6.211,-2.046 1.661,1.382 3.741,2.011 6.068,2.011 3.077,0 5.102,-1.11 6.292,-2.763 C 0.607,4.834 0.307,2.484 0,0 m -53.57,-30.416 55.708,0 0,55.71 -55.708,0 0,-55.71 z"
         inkscape:connector-curvature="0" />
    </g>
    <path
       id="path4798"
       style="fill:#000000;fill-opacity:1;fill-rule:nonzero;stroke:none"
       d="m 1376.4062,651.45535 -972.64212,0 0,-972.6598 972.64212,0 0,972.6598 z M 390,665.21935 l 1000.188,0 0,-1000.18781 -1000.188,0 0,1000.18781 z"
       inkscape:connector-curvature="0" />
    <g
       transform="matrix(17.714353,0,0,-17.714353,1345.3228,-57.182651)"
       id="g4800" />
    <g
       transform="matrix(17.714353,0,0,-17.714353,1221.4746,79.963779)"
       id="g4804"
       style="fill:#000000;fill-opacity:1">
      <path
         id="path4806"
         style="fill:#000000;fill-opacity:1;fill-rule:nonzero;stroke:none"
         d="m 0,0 c -0.056,-1.441 -2.171,-7.211 -2.922,-8.484 -0.325,-0.55 -0.692,-1.006 -1.354,-1.006 -0.575,0 -0.834,0.409 -0.849,0.877 -0.042,1.301 2.348,7.828 3.163,8.888 0.365,0.561 0.77,0.65 1.231,0.645 C -0.052,0.911 0.017,0.422 0,0 M 3.853,-2.354 C 3.372,-4.744 2.292,-7.572 1.12,-9.681 c -1.913,-3.439 -4.235,-3.921 -6.263,-3.896 -2.028,0.025 -4.316,0.774 -4.332,3.902 -0.012,2.245 0.955,5.417 1.779,7.495 1.433,3.768 2.899,6.84 7.531,6.785 5.402,-0.064 4.438,-4.868 4.018,-6.959 m -17.152,3.352 c -0.782,0 -1.294,-0.495 -1.673,-1.03 -0.838,-1.175 -2.653,-5.887 -2.935,-7.824 -0.193,-1.325 0.378,-1.594 1.005,-1.594 1.003,0 2.129,1.061 2.513,2.814 0,0 -1.912,0.044 -1.383,1.741 0.511,1.644 1.481,2.001 3.091,2.067 3.172,0.129 2.858,-2.213 2.604,-3.461 -0.822,-4.056 -3.709,-7.313 -7.792,-7.313 -2.793,0 -4.53,1.544 -4.53,4.395 0,2.033 1.008,5.22 1.805,7.085 1.702,3.972 3.485,6.751 8.027,6.751 2.724,0 4.873,-0.979 4.557,-3.531 -0.229,-1.876 -1.168,-2.976 -2.871,-3.108 -0.477,-0.036 -2.426,0.013 -1.78,1.856 0.227,0.645 0.319,1.152 -0.638,1.152 M -27.51,-6.025 c -0.188,-0.505 -0.541,-1.567 -0.826,-2.689 0.927,0.23 1.622,0.393 2.813,0.361 1.36,-0.03 2.226,-0.593 2.226,-1.714 0,-2.724 -3.008,-3.524 -5.095,-3.524 -2.29,0 -4.304,1.306 -4.304,3.812 0,2.935 1.594,7.391 3.086,10.358 1.838,3.643 3.711,4.126 6.94,4.126 1.419,0 3.055,-0.607 3.055,-1.946 0,-1.858 -1.575,-2.565 -3.134,-2.654 -0.666,-0.037 -1.692,-0.077 -2.306,-0.032 0,0 -0.518,-0.792 -1.07,-2.2 2.89,0.406 4.114,-0.25 3.626,-1.92 -0.66,-2.259 -2.615,-2.408 -5.011,-1.978 m -9.201,-2.611 c 2.826,0.491 3.536,-0.532 3.448,-1.477 -0.268,-2.83 -2.867,-3.466 -5.122,-3.411 -1.635,0.037 -3.107,0.788 -3.149,2.686 -0.07,3.324 3.319,11.012 4.914,13.56 0.737,1.211 1.634,1.808 3.066,1.808 1.357,0 1.694,-0.697 1.674,-1.53 -0.053,-2.226 -3.651,-8.992 -4.831,-11.636 M -0.372,6.293 c -2.919,0 -4.936,-1.157 -6.299,-2.772 -0.231,0.482 -0.406,0.695 -0.655,0.974 -1.117,1.263 -2.912,1.853 -5.322,1.853 -2.357,0 -4.32,-0.736 -5.682,-1.894 -0.709,1.151 -2.395,1.912 -4.432,1.912 -2.657,0 -5.556,-0.376 -7.273,-3.145 -0.041,0.998 -0.133,1.525 -0.693,2.119 -0.681,0.72 -1.783,0.908 -2.858,0.908 -1.955,0 -3.426,-0.853 -4.486,-2.594 -1.539,-2.456 -5.264,-10.535 -5.18,-14.448 0.053,-2.525 1.749,-4.347 4.785,-4.42 2.371,-0.056 4.23,0.58 5.414,1.772 1.061,-1.153 2.68,-1.828 4.617,-1.828 2.159,0 4.33,0.647 5.613,2.063 1.082,-1.326 2.782,-2.099 4.967,-2.088 2.859,0.014 5.37,1.367 7.008,3.445 0.899,-2.447 3.182,-3.42 5.675,-3.42 5.459,0 7.86,3.753 9.858,9.692 0.45,1.339 1.05,3.571 1.15,5.448 0.167,3.121 -1.155,6.423 -6.207,6.423"
         inkscape:connector-curvature="0" />
    </g>
  </g>
</svg>
