<?xml version="1.0" encoding="UTF-8" standalone="no"?>
<!-- Created with Inkscape (http://www.inkscape.org/) -->

<svg
   xmlns:dc="http://purl.org/dc/elements/1.1/"
   xmlns:cc="http://creativecommons.org/ns#"
   xmlns:rdf="http://www.w3.org/1999/02/22-rdf-syntax-ns#"
   xmlns:svg="http://www.w3.org/2000/svg"
   xmlns="http://www.w3.org/2000/svg"
   xmlns:sodipodi="http://sodipodi.sourceforge.net/DTD/sodipodi-0.dtd"
   xmlns:inkscape="http://www.inkscape.org/namespaces/inkscape"
   width="1000"
   height="1008.654"
   id="svg2"
   sodipodi:version="0.32"
   inkscape:version="0.92.3 (2405546, 2018-03-11)"
   version="1.0"
   inkscape:output_extension="org.inkscape.output.svg.inkscape"
   sodipodi:docname="Lego_old.svg">
  <metadata
     id="metadata4325">
    <rdf:RDF>
      <cc:Work
         rdf:about="">
        <dc:format>image/svg+xml</dc:format>
        <dc:type
           rdf:resource="http://purl.org/dc/dcmitype/StillImage" />
        <dc:title></dc:title>
      </cc:Work>
    </rdf:RDF>
  </metadata>
  <defs
     id="defs4323" />
  <sodipodi:namedview
     pagecolor="#ffffff"
     bordercolor="#666666"
     borderopacity="1"
     objecttolerance="10"
     gridtolerance="10"
     guidetolerance="10"
     inkscape:pageopacity="0"
     inkscape:pageshadow="2"
     inkscape:window-width="1360"
     inkscape:window-height="706"
     id="namedview4321"
     showgrid="false"
     inkscape:zoom="0.35355339"
     inkscape:cx="85.598846"
     inkscape:cy="736.35937"
     inkscape:window-x="-8"
     inkscape:window-y="-8"
     inkscape:window-maximized="1"
     inkscape:current-layer="layer1" />
  <g
     inkscape:label="Layer 1"
     inkscape:groupmode="layer"
     id="layer1"
     transform="translate(-653.74053,578.76198)">
    <path
       style="fill:none;fill-opacity:0.40201009;fill-rule:nonzero;stroke:#000000;stroke-width:33.01197052;stroke-miterlimit:4;stroke-dasharray:none;stroke-opacity:1"
       d="M 670.24652,413.38604 H 1637.2345 V -562.25611 H 670.24652 Z"
       id="path8610"
       inkscape:connector-curvature="0" />
    <path
       inkscape:connector-curvature="0"
       id="path3879"
       d="M 670.24652,413.38604 H 1637.2345 V -562.25611 H 670.24652 Z"
       style="fill:#ed1c24;fill-opacity:1;fill-rule:nonzero;stroke:none;stroke-width:20.55584526" />
    <path
       style="fill:#fef100;fill-opacity:1;fill-rule:evenodd;stroke:none;stroke-width:21.10842705"
       d="m 1353.8231,-232.50052 c -21.923,-21.92299 -43.0717,-39.53084 -90.882,-39.53084 -47.8104,0 -55.7416,7.17057 -85.4039,21.65659 -14.1624,-10.49414 -25.1857,-24.23373 -86.3078,-23.87023 -61.1221,0.36313 -75.3211,13.81368 -107.2005,43.951 0,0 -7.06885,-17.56236 -21.81919,-28.21639 -14.7503,-10.65406 -33.56797,-14.9702 -60.49667,-14.9702 -60.8491,0 -83.32094,34.174 -94.93007,51.11721 -31.70331,51.46621 -73.23824,132.209312 -95.86222,191.86774 -21.64866,70.690736 -17.40006,132.93019 51.08687,153.43975 40.43486,12.31413 85.22114,6.05242 135.53677,-17.60924 22.7151,14.21352 33.93847,22.1335 75.02202,22.52381 41.08349,0.39027 82.50029,-13.70426 118.47919,-36.851924 25.7201,20.086684 41.8768,36.613464 89.0349,37.905044 47.158,1.29161 80.0116,-21.19009 114.152,-50.212898 17.514,23.052228 49.4128,47.089528 92.7101,50.556768 61.4686,4.74918 107.9195,-21.51639 142.6507,-62.871774 54.4503,-62.7895033 77.3729,-136.974373 74.8286,-212.414286 -7.6179,-89.51045 -61.597,-129.30767 -131.8398,-129.30767 -57.8194,0 -82.7959,14.58322 -118.759,42.83754 z"
       id="path3881"
       inkscape:connector-curvature="0"
       sodipodi:nodetypes="czczczsccccscscccccc" />
    <path
       style="fill-opacity:1;fill-rule:evenodd;stroke:none;stroke-width:21.10842705"
       d="m 1090.3292,-248.70562 c -61.3616,0 -84.8905,20.56393 -113.5575,72.95158 -27.30593,47.29526 -41.69985,89.156792 -62.88609,135.500942 -6.28456,-1.384046 -9.37191,-1.816026 -20.84739,-2.464417 19.26733,-44.371832 49.99953,-101.105835 66.28184,-144.341395 16.28231,-43.23556 -12.61629,-61.45329 -56.81096,-61.45329 -43.41382,0 -63.82083,15.27511 -91.90052,63.91055 -32.80165,60.58309 -69.17659,134.12214 -84.46421,195.987088 -9.72581,36.29725 -5.88244,79.878187 66.22032,91.494112 0,0 64.25751,3.43123 110.66739,-29.883246 14.67834,20.448166 36.60419,29.285176 67.83729,28.757686 52.08843,-0.87974 91.33893,-14.173694 121.43343,-44.268141 16.9941,17.288186 28.4162,39.049055 84.917,42.989581 56.5008,3.94053 80.1318,-18.265521 120.6997,-62.068263 20.4056,31.97844 47.8584,65.762523 97.8164,65.762523 67.2616,0 112.5061,-40.977758 140.2287,-84.927806 14.1134,-22.8504468 22.7495,-46.77613 30.2117,-64.426787 23.8654,-65.530447 17.5066,-133.895937 -9.3512,-166.584277 -11.3262,-15.78783 -33.446,-38.60596 -84.6544,-38.84988 -51.2085,-0.24576 -91.4589,21.69546 -121.5695,56.32994 -17.2243,-39.68457 -58.5062,-52.94607 -88.8369,-53.34247 -30.3308,-0.39644 -60.7007,6.57749 -89.1058,29.48064 -13.9465,-24.15599 -34.8762,-30.55467 -82.3293,-30.55467 z"
       id="path3883"
       inkscape:connector-curvature="0"
       sodipodi:nodetypes="scccssccccsczccccczczcs" />
    <path
       style="fill:#ffffff;fill-opacity:1;fill-rule:evenodd;stroke:none;stroke-width:21.10842705"
       d="m 903.70549,-221.31026 c -43.98144,0 -50.61674,19.87966 -73.41723,55.18471 -29.93918,57.11581 -49.81576,96.209801 -72.32835,155.782398 -11.11282,26.10506 -13.95951,55.679422 -3.45657,68.50505 10.50298,12.825628 26.80029,16.946659 54.524,16.297643 15.57996,-0.444634 40.7002,-4.381935 62.91271,-15.110753 22.21251,-10.728817 42.18915,-26.326717 42.18915,-53.665948 -4.3235,-27.02305 -24.72292,-30.024351 -57.84258,-24.981039 24.82915,-51.442005 53.21603,-109.176681 78.04521,-160.639661 10.51689,-28.38979 0.43584,-41.3724 -30.62634,-41.3724 z m 425.02911,121.617016 c -33.8205,88.740325 -5.4799,173.906589 67.6056,175.612795 63.0589,8.51056 123.7268,-53.57887 150.1674,-145.430646 25.0177,-100.618145 -9.458,-144.714615 -73.5631,-153.387775 -79.4092,-0.36992 -121.456,64.80848 -144.2099,123.205626 z m -69.8997,-121.072576 c -56.5982,0 -98.473,45.23736 -118.5207,75.79248 -63.6587,96.452173 -47.4582,162.837231 -15.165,195.130385 20.5692,20.569246 51.029,30.769652 85.8742,19.834436 34.8453,-10.935215 67.2952,-47.735604 89.5799,-96.340781 24.869,-62.473689 -5.5499,-72.416124 -32.2311,-75.52127 -19.4607,-1.32139 -32.1305,2.102646 -43.1588,8.616385 -11.0284,6.513738 -18.1009,15.597936 -20.9812,26.347147 -1.6569,9.54035 -2.1015,27.470656 24.9149,27.470656 -6.877,25.665304 -23.4876,43.3727053 -41.4747,38.55306753 -28.4833,-7.63207443 -14.2949,-54.77940553 1.1124,-87.04655353 16.4028,-33.941482 39.673,-62.302612 57.7843,-62.475482 18.1113,-0.17277 14.675,14.76992 26.113,28.47726 11.4379,13.70738 34.4627,10.51655 48.4729,-7.18076 14.0103,-17.69732 13.3431,-45.03585 -2.2925,-64.90638 -15.6356,-19.87053 -35.6272,-25.94477 -60.0276,-26.75059 z m -167.08,0.52595 c -45.5807,0.15736 -63.4044,6.52482 -90.2081,50.43323 -26.80365,43.90846 -56.66782,113.931947 -74.18181,171.6991555 -13.0613,37.5518515 -2.56991,67.1731635 29.30436,71.3473805 31.87427,4.174217 61.09555,-0.364599 91.67125,-18.017604 22.6028,-12.629317 36.2803,-29.094881 36.9164,-51.83195 -3.1805,-19.879112 -18.7766,-31.084696 -72.0131,-20.940521 3.2017,-5.988921 6.5225,-15.438782 9.3849,-21.742931 41.4776,-2.780232 62.8346,-16.807092 68.6444,-45.613742 4.9279,-24.433778 -10.3402,-29.395988 -36.4053,-30.834028 1.2614,-3.81013 4.9394,-14.81771 8.6972,-19.93505 22.6938,0 73.2978,-1.82464 84.5011,-43.63595 10.7025,-39.94229 -23.9587,-40.77228 -56.3113,-40.92799 z m 365.1467,69.62606 c 34.6007,2.56918 21.8549,44.49662 9.007,83.770962 -10.1988,33.138885 -29.4405,73.2026902 -58.5389,69.5059363 -28.3542,0 -20.0007,-54.6658443 -5.0686,-90.5847403 8.3348,-25.939708 35.641,-67.772328 54.6005,-62.692158 z"
       id="path3885"
       inkscape:connector-curvature="0"
       sodipodi:nodetypes="scczczcccscccccccszcczcccczzzzcczczccccsccccccccc" />
    <path
       style="fill:#fff200;fill-opacity:1;fill-rule:evenodd;stroke:none;stroke-width:21.78102112"
       d="m 1451.0179,-121.38603 c -3.7503,-0.74307 -11.2944,9.12748 -22.8927,37.176244 -10.2726,26.459719 -19.1102,56.272831 -14.7511,58.789553 4.359,2.516723 12.7821,-9.260078 27.1198,-44.742775 12.4347,-35.862662 14.7744,-50.380852 10.524,-51.223022 z"
       id="path3887"
       inkscape:connector-curvature="0"
       sodipodi:nodetypes="cczcc" />
  </g>
</svg>
