<?xml version="1.0" encoding="utf-8"?>
<!-- Generator: Adobe Illustrator 16.0.3, SVG Export Plug-In . SVG Version: 6.00 Build 0)  -->
<!DOCTYPE svg PUBLIC "-//W3C//DTD SVG 1.1//EN" "http://www.w3.org/Graphics/SVG/1.1/DTD/svg11.dtd">
<svg version="1.1" id="Capa_1" xmlns="http://www.w3.org/2000/svg" xmlns:xlink="http://www.w3.org/1999/xlink" x="0px" y="0px"
	 width="566.93px" height="346.243px" viewBox="0 0 566.93 346.243" enable-background="new 0 0 566.93 346.243"
	 xml:space="preserve">
<g>
	<path fill-rule="evenodd" clip-rule="evenodd" fill="#FF6600" d="M0,1.767h18.862V19.52v133.703l40.767,0.003v17.753l-40.767-0.003
		v0.003H0V1.767L0,1.767z M98.134,1.767h9.125h9.738h52.705V19.52h-52.705v51.563h46.474v17.754h-46.474v64.386h52.705v17.753
		h-52.705v0.003H98.134V1.767L98.134,1.767z M352.469,84.823v5.783v57.104c-15.424,17.756-38.58,28.924-61.35,28.924
		c-47.675,0-86.322-39.52-86.322-88.27s38.647-88.269,86.322-88.269c19.996,0,38.404,6.953,53.039,18.623l-11.674,12.125
		c-11.578-8.72-25.883-13.873-41.365-13.873c-38.561,0-69.82,31.964-69.82,71.394c0,39.43,31.259,71.394,69.82,71.394
		c16.844,0,32.295-6.1,44.355-16.256l-0.068-52.896h-38.002V73.861h55.064V84.823L352.469,84.823z M480.607,0
		c47.674,0,86.322,39.52,86.322,88.269c0,48.75-38.648,88.269-86.322,88.269s-86.322-39.519-86.322-88.269
		C394.285,39.52,432.934,0,480.607,0L480.607,0z M480.607,16.875c38.561,0,69.818,31.964,69.818,71.394
		c0,39.43-31.258,71.394-69.818,71.394s-69.82-31.964-69.82-71.394C410.787,48.839,442.047,16.875,480.607,16.875L480.607,16.875z"
		/>
	<path fill="#354166" d="M445.826,297.644c-1.174,1.651-3.467,2.037-5.117,0.862c-1.65-1.174-2.037-3.466-0.863-5.116l17.951-25.314
		c-0.678-0.535-1.303-1.162-1.867-1.886c-3.379,2.586-7.01,6.513-10.857,10.67c-10.17,10.992-21.684,23.438-37.18,21.793
		c-5.48-0.582-8.354-3.686-9.254-8.181c-0.123-0.615-0.203-1.255-0.24-1.917c-1.061-0.15-2.092-0.391-3.086-0.729
		c-0.301,0.358-0.635,0.714-1.004,1.066c-4.074,3.877-8.074,6.495-12.523,6.785c-4.607,0.299-9.166-1.858-13.969-7.603
		c-0.404-0.481-0.662-1.036-0.781-1.611c-6.326,5.368-12.547,9.014-18.057,8.908c-0.398-0.008-0.785-0.005-1.166-0.003
		c-4.131,0.025-7.877,0.047-9.59-5.001c-4.67,3.623-9.459,5.721-14.006,5.72c-2.973,0-5.807-1.305-7.949-3.313
		s-3.652-4.789-3.953-7.714c-0.133-1.282-0.127-2.562,0-3.826c-0.77-1.17-1.523-2.362-2.275-3.554
		c-0.553-0.876-1.105-1.751-1.66-2.609c-1.15,2.346-2.432,4.673-3.887,6.91c-4.729,7.271-11.174,13.441-20.557,16.04
		c-1.172,0.324-2.337,0.333-3.462,0.086c-2.087-0.459-4.042-1.795-5.571-3.534c-0.87-0.99-1.631-2.146-2.214-3.358l-1.02,0.484
		c-4.468,2.129-8.939,4.259-14.235,4.127c-7.9-0.196-12.808-2.85-15.691-7.053c-9.575,6.525-18.868,10.287-26.428,8.62
		c-0.072-0.013-0.144-0.027-0.216-0.044l-0.083-0.02l0.003-0.014l-0.003-0.001c-7.045-1.693-13.166-7.519-17.05-14.65
		c-3.83-7.032-5.569-15.472-3.917-22.523l0.024-0.103l0.011,0.002l0.003-0.017c0.743-3.094,1.168-6.054,1.312-8.866
		c0.283-5.561-0.56-10.479-2.223-14.686c-3.268,0.733-6.563,1.27-9.885,1.586c-5.488,11.692-11.33,23.272-17.839,34.543
		c-12.583,21.787-29.187,41.241-46.829,54.643c-16.79,12.753-34.603,20.075-50.986,18.87c-0.897-0.065-1.799-0.202-2.701-0.404
		c-5.063-1.135-9.315-4.34-12.156-8.939c-2.717-4.398-4.128-10.068-3.667-16.358c0.12-1.627,0.371-3.321,0.763-5.07
		c3.805-16.967,10.088-32.182,20.867-46.466c10.704-14.187,25.822-27.398,47.344-40.444c1.73-1.047,3.983-0.494,5.031,1.236
		c1.047,1.731,0.494,3.983-1.237,5.031c-20.65,12.517-35.104,25.125-45.274,38.604c-10.095,13.379-15.992,27.676-19.573,43.648
		c-0.3,1.338-0.495,2.669-0.591,3.979c-0.347,4.72,0.646,8.867,2.575,11.988c1.804,2.92,4.439,4.941,7.528,5.634
		c0.499,0.112,1.035,0.19,1.608,0.232c14.518,1.067,30.63-5.671,46.041-17.376c16.856-12.804,32.777-31.492,44.903-52.486
		c5.78-10.007,11.039-20.295,15.998-30.703c-2.986-0.248-6.189-0.827-9.333-1.637c-4.958-1.275-9.831-3.138-13.5-5.177
		c-4.497-2.498-7.503-5.58-7.645-8.835c-0.024-0.565,0.035-1.136,0.182-1.709c0.979-3.805,4.527-6.17,9.169-7.496
		c4.789-1.368,11.024-1.718,16.229-1.452c1.991,0.101,3.992,0.394,5.972,0.869c3.101,0.745,6.11,1.941,8.924,3.563
		c2.458-5.557,4.875-11.117,7.284-16.656c10.477-24.099,20.789-47.818,33.708-69.483c-13.127-1.228-27.012-5.649-40.087-9.814
		c-12.007-3.824-23.309-7.424-32.163-7.906c-14.364-0.782-29.625,5.577-42.396,14.412c-15.793,10.926-27.592,25.34-29.092,34.587
		c-2.246,13.841-0.908,24.186,2.947,32.362c3.839,8.141,10.27,14.305,18.193,19.729c1.674,1.144,2.106,3.428,0.963,5.103
		s-3.428,2.106-5.103,0.963c-8.92-6.107-16.21-13.155-20.693-22.662c-4.467-9.471-6.055-21.212-3.551-36.645
		c1.786-11.011,14.839-27.486,32.168-39.474c13.948-9.65,30.795-16.585,46.938-15.706c9.766,0.532,21.517,4.275,34.002,8.251
		c14.68,4.675,30.415,9.687,44.232,9.8c2.024,0.016,3.652,1.67,3.636,3.694c-0.006,0.765-0.246,1.474-0.652,2.059
		c-14.071,22.478-25.103,47.85-36.324,73.662c-2.627,6.043-5.265,12.11-7.955,18.174c1.57,1.446,3.026,3.059,4.338,4.832
		c0.538,0.726,1.051,1.479,1.539,2.257c34.579-10.341,66.753-44.098,94.34-73.044c2.129-2.235,4.238-4.449,6.48-6.788
		c24.354-25.409,48.195-46.213,72.174-60.904c24.209-14.833,48.566-23.44,73.73-24.282c6.227-0.208,12.166,0.755,17.914,2.527
		c5.668,1.747,11.117,4.262,16.461,7.202c1.777,0.977,2.428,3.209,1.451,4.988c-0.977,1.778-3.209,2.428-4.986,1.452
		c-4.971-2.733-9.979-5.054-15.082-6.627c-5.02-1.547-10.172-2.39-15.527-2.211c-23.793,0.796-46.977,9.027-70.139,23.219
		c-23.393,14.333-46.762,34.744-70.705,59.726c-2.012,2.099-4.217,4.411-6.453,6.759c-27.922,29.299-60.414,63.388-96.384,74.661
		c1.835,4.957,2.75,10.642,2.427,16.974c-0.164,3.209-0.652,6.604-1.508,10.172l0.01,0.002l-0.024,0.103
		c-1.237,5.279,0.172,11.794,3.198,17.35c2.969,5.453,7.412,9.85,12.303,11.027l0.003-0.014l0.083,0.02l0.089,0.022
		c5.7,1.271,13.576-2.352,22.021-8.368c-1.513-7.028-0.058-15.769,1.679-24.095c2.051-9.832,15.871-36.839,31.061-57.137
		c10.951-14.635,22.917-26.023,32.559-25.979c1.268,0.006,2.398,0.251,3.4,0.714c3.461,1.6,4.912,5.238,4.854,10.17
		c-0.045,3.824-0.994,8.601-2.545,13.771c-3.926,13.1-11.846,29.338-18.531,38.676c-7.869,10.988-25.405,31.821-42.705,45.658
		c-0.295,0.236-0.591,0.471-0.887,0.703c1.768,2.476,4.832,4.044,9.815,4.168c3.504,0.087,7.204-1.675,10.901-3.438
		c1.103-0.524,2.207-1.051,3.331-1.544c1.605-6.74,4.427-12.712,8.335-17.205c4.002-4.604,9.113-7.661,15.205-8.468
		c4.396-0.583,7.91,0.761,10.932,3.185c0.361-0.976,0.711-1.933,1.049-2.861c0.691-1.905,2.795-2.89,4.699-2.199
		c1.906,0.69,2.891,2.795,2.201,4.7c-0.746,2.044-1.539,4.214-2.414,6.443c1.188,1.634,2.324,3.379,3.449,5.151
		c1.594-2.771,3.713-5.271,6.143-7.323c2.652-2.24,5.695-3.974,8.84-4.96c3.289-1.031,6.715-1.252,9.982-0.409l0.012,0.004
		l0.002-0.004c3.332,0.86,6.404,2.782,8.881,6.02l0.311-0.544l42.219-74.485c1-1.762,3.24-2.38,5.002-1.38s2.379,3.24,1.379,5.002
		l-42.219,74.485c-3.529,6.227-7.561,11.829-11.75,16.296c0.387,0.479,0.658,1.063,0.764,1.714c0.229,1.379,1.502,1.372,2.926,1.363
		c0.436-0.003,0.877-0.005,1.311,0.003c8.74,0.166,23.113-16.416,34.688-29.772c3.66-4.223,7.055-8.142,9.994-11.197
		c1.404-1.46,3.729-1.506,5.189-0.101c1.369,1.317,1.494,3.444,0.344,4.908c-6.113,8.27-4.355,15.613-2.943,21.506
		c0.646,2.695,1.238,5.171,1.287,7.482c0.545,0.198,1.111,0.349,1.699,0.454c0.15-0.53,0.318-1.065,0.504-1.602
		c1.229-3.584,3.199-7.385,5.629-10.913c6.494-9.435,16.482-16.887,25.135-13.888c4.07,1.41,5.85,4.141,5.867,7.636
		c0.01,2.514-1.084,5.284-2.982,8.039c-1.672,2.425-4.01,4.929-6.752,7.261c-5.795,4.927-13.586,9.188-20.996,10.49
		c0.021,0.239,0.055,0.469,0.098,0.689c0.252,1.258,1.123,2.136,2.816,2.315c11.854,1.259,22.035-9.746,31.027-19.464
		c5.494-5.94,10.592-11.45,15.898-14.188c1.801-0.928,4.016-0.221,4.943,1.582c0.092,0.179,0.168,0.361,0.229,0.547l0.002-0.001
		c0.164,0.501,0.344,0.92,0.537,1.258c0.654,1.134,1.668,1.771,2.885,2.012c0.799,0.158,1.688,0.172,2.641,0.063
		c0.063-0.302,0.205-0.593,0.426-0.839l8.768-9.8c0.674-0.754,1.832-0.818,2.586-0.144s0.818,1.833,0.145,2.587l-5.41,6.046
		c0.398-0.203,0.795-0.419,1.188-0.645c1.754-1.008,3.994-0.403,5.002,1.351c0.699,1.218,0.623,2.669-0.078,3.78
		c-0.809,1.358-1.037,2.697-0.861,3.924c0.154,1.085,0.625,2.127,1.295,3.051c0.723,0.999,1.641,1.835,2.629,2.436
		c1.244,0.755,2.555,1.141,3.637,0.986c4.563-0.651,9.322-2.993,12.994-6.408c3.244-3.018,5.58-6.839,6.049-10.987
		c0.223-2.016,2.037-3.471,4.053-3.248c2.018,0.222,3.471,2.037,3.25,4.053c-0.682,6.031-3.902,11.421-8.35,15.559
		c-4.744,4.413-10.959,7.448-16.961,8.305c-2.791,0.398-5.82-0.386-8.465-1.992c-1.836-1.113-3.508-2.622-4.787-4.391
		c-1.262-1.743-2.182-3.765-2.559-5.951h-6.543L445.826,297.644L445.826,297.644z M187.937,227.967
		c-0.337,0.745-0.675,1.49-1.015,2.234c0.834-0.132,1.666-0.278,2.497-0.44C188.947,229.137,188.453,228.538,187.937,227.967
		L187.937,227.967z M178.475,231.014c1.219-2.638,2.422-5.281,3.613-7.928c-2.382-1.469-4.957-2.536-7.614-3.175
		c-1.512-0.363-3.069-0.588-4.649-0.668c-4.514-0.23-9.854,0.054-13.843,1.193c-2.016,0.576-3.526,1.246-3.97,1.979
		c0.309,0.487,1.749,1.431,3.816,2.579c3.155,1.754,7.396,3.368,11.747,4.487C171.399,230.466,175.261,231.059,178.475,231.014
		L178.475,231.014z M279.362,283.753c0.149,0.237,0.274,0.495,0.369,0.772c0.404,1.177,0.176,2.418-0.503,3.354
		c0.292,0.643,0.706,1.278,1.194,1.835c0.564,0.642,1.143,1.104,1.604,1.205c0.004,0.001,0.003,0.004-0.001,0.006l-0.002,0.013
		c7.324-2.042,12.473-7.038,16.318-12.953c1.963-3.018,3.607-6.304,5.037-9.592c-2.168-2.253-4.475-3.62-7.051-3.278
		c-4.189,0.555-7.76,2.72-10.607,5.994C282.877,274.378,280.73,278.742,279.362,283.753L279.362,283.753z M245.646,276.654
		c16.143-13.3,32.334-32.608,39.754-42.971c6.293-8.787,13.758-24.108,17.469-36.491c1.379-4.598,2.221-8.697,2.256-11.759
		c0.023-1.952-0.154-3.209-0.598-3.415c-0.074-0.033-0.191-0.052-0.354-0.053c-6.922-0.031-16.955,10.07-26.665,23.047
		c-14.621,19.539-27.836,45.116-29.738,54.233C246.513,265.273,245.408,271.489,245.646,276.654L245.646,276.654z M320.068,279.585
		c0.957,1.464,0.736,3.38-0.467,4.591l0.014,0.138c0.115,1.121,0.76,2.248,1.684,3.114c0.859,0.807,1.908,1.33,2.918,1.33
		c3.412,0.001,7.441-2.215,11.578-5.935c3.076-2.767,6.131-6.311,9-10.387c-1.68-3.342-3.932-5.14-6.363-5.768v-0.004
		c-1.861-0.477-3.918-0.317-5.971,0.326c-2.201,0.691-4.365,1.933-6.283,3.552C323.311,272.965,321.039,276.173,320.068,279.585
		L320.068,279.585z M281.98,290.95l0.041-0.012l0.002-0.013C282.006,290.938,281.937,290.962,281.98,290.95L281.98,290.95z
		 M387.586,265.08c-5,5.758-10.416,11.896-15.861,17.13c0.65,0.202,1.254,0.588,1.727,1.15c3.102,3.711,5.631,5.133,7.873,4.986
		c2.4-0.156,5.02-2.008,7.924-4.772c1.646-1.566,0.9-4.681-0.012-8.492C388.51,272.054,387.713,268.72,387.586,265.08
		L387.586,265.08z M407.385,280.573c5.078-1.531,10.424-4.751,14.625-8.323c2.266-1.927,4.158-3.937,5.457-5.824
		c1.072-1.557,1.693-2.898,1.689-3.842c-0.002-0.26-0.281-0.515-0.922-0.735c-5.029-1.743-11.852,4.063-16.713,11.127
		C409.832,275.429,408.408,278.039,407.385,280.573L407.385,280.573z"/>
</g>
</svg>
