<?xml version="1.0" encoding="UTF-8" standalone="no"?>
<svg
   xmlns:dc="http://purl.org/dc/elements/1.1/"
   xmlns:cc="http://creativecommons.org/ns#"
   xmlns:rdf="http://www.w3.org/1999/02/22-rdf-syntax-ns#"
   xmlns:svg="http://www.w3.org/2000/svg"
   xmlns="http://www.w3.org/2000/svg"
   xmlns:xlink="http://www.w3.org/1999/xlink"
   width="184.49918mm"
   height="108.85714mm"
   viewBox="0 0 184.49918 108.85715"
   version="1.1"
   id="svg8">
  <defs
     id="defs2">
    <linearGradient
       id="linearGradient2319">
      <stop
         style="stop-color:#8fc5e3;stop-opacity:1"
         offset="0"
         id="stop2311" />
      <stop
         style="stop-color:#58abc8;stop-opacity:1"
         offset="0.25112432"
         id="stop2313" />
      <stop
         style="stop-color:#07709f;stop-opacity:1"
         offset="0.5571593"
         id="stop2315" />
      <stop
         style="stop-color:#145b8a;stop-opacity:1"
         offset="1"
         id="stop2317" />
    </linearGradient>
    <linearGradient
       id="linearGradient1378">
      <stop
         style="stop-color:#8b8b8b;stop-opacity:1"
         offset="0"
         id="stop1374" />
      <stop
         style="stop-color:#f9f9f9;stop-opacity:1"
         offset="1"
         id="stop1376" />
    </linearGradient>
    <linearGradient
       xlink:href="#linearGradient1378"
       id="linearGradient1380"
       x1="962.85718"
       y1="712.85718"
       x2="1087.1428"
       y2="1418.5714"
       gradientUnits="userSpaceOnUse" />
    <linearGradient
       x1="0"
       y1="0"
       x2="1"
       y2="0"
       gradientUnits="userSpaceOnUse"
       gradientTransform="matrix(72.280488,0,0,72.8965,31.038434,169.97143)"
       spreadMethod="pad"
       id="linearGradient4771">
      <stop
         style="stop-opacity:1;stop-color:#918f90"
         offset="0"
         id="stop4761" />
      <stop
         style="stop-opacity:1;stop-color:#c8c7c7"
         offset="0.25"
         id="stop4763" />
      <stop
         style="stop-opacity:1;stop-color:#e2e2e2"
         offset="0.5"
         id="stop4765" />
      <stop
         style="stop-opacity:1;stop-color:#c8c7c7"
         offset="0.85231704"
         id="stop4767" />
      <stop
         style="stop-opacity:1;stop-color:#918f90"
         offset="1"
         id="stop4769" />
    </linearGradient>
    <linearGradient
       x1="0"
       y1="0"
       x2="1"
       y2="0"
       gradientUnits="userSpaceOnUse"
       gradientTransform="matrix(72.280488,0,0,72.8965,31.038434,169.97143)"
       spreadMethod="pad"
       id="linearGradient1101">
      <stop
         style="stop-opacity:1;stop-color:#918f90"
         offset="0"
         id="stop1091" />
      <stop
         style="stop-opacity:1;stop-color:#c8c7c7"
         offset="0.25"
         id="stop1093" />
      <stop
         style="stop-opacity:1;stop-color:#e2e2e2"
         offset="0.5"
         id="stop1095" />
      <stop
         style="stop-opacity:1;stop-color:#c8c7c7"
         offset="0.75"
         id="stop1097" />
      <stop
         style="stop-opacity:1;stop-color:#918f90"
         offset="1"
         id="stop1099" />
    </linearGradient>
    <linearGradient
       id="linearGradient3625">
      <stop
         style="stop-color:#a6d55c;stop-opacity:1"
         offset="0"
         id="stop3613" />
      <stop
         style="stop-color:#4eb84e;stop-opacity:1"
         offset="0.32599512"
         id="stop3615" />
      <stop
         style="stop-color:#37b24e;stop-opacity:1"
         offset="0.42737576"
         id="stop3617" />
      <stop
         style="stop-color:#03a04c;stop-opacity:1"
         offset="0.59872055"
         id="stop3619" />
      <stop
         style="stop-color:#079448;stop-opacity:1"
         offset="0.81174153"
         id="stop3621" />
      <stop
         style="stop-color:#0c8141;stop-opacity:1"
         offset="1"
         id="stop3623" />
    </linearGradient>
    <linearGradient
       id="linearGradient3609">
      <stop
         style="stop-color:#a6c43d;stop-opacity:1"
         offset="0"
         id="stop3603" />
      <stop
         style="stop-color:#7cc144;stop-opacity:1"
         offset="0.37779927"
         id="stop3611" />
      <stop
         style="stop-color:#21a044;stop-opacity:1"
         offset="0.61771888"
         id="stop3605" />
      <stop
         style="stop-color:#00843c;stop-opacity:1"
         offset="1"
         id="stop3607" />
    </linearGradient>
    <linearGradient
       id="linearGradient3601">
      <stop
         style="stop-color:#c2dd2c;stop-opacity:1"
         offset="0"
         id="stop3597" />
      <stop
         style="stop-color:#0c9b47;stop-opacity:1"
         offset="1"
         id="stop3599" />
    </linearGradient>
    <linearGradient
       id="linearGradient2693">
      <stop
         style="stop-color:#83c4eb;stop-opacity:1"
         offset="0"
         id="stop2689" />
      <stop
         style="stop-color:#2895d3;stop-opacity:1"
         offset="0.48456207"
         id="stop2695" />
      <stop
         style="stop-color:#2a4f99;stop-opacity:1"
         offset="1"
         id="stop2691" />
    </linearGradient>
    <linearGradient
       id="linearGradient2687">
      <stop
         style="stop-color:#75211f;stop-opacity:1"
         offset="0"
         id="stop2675" />
      <stop
         style="stop-color:#ba2b29;stop-opacity:1"
         offset="0.27569664"
         id="stop2677" />
      <stop
         style="stop-color:#db2e2a;stop-opacity:1"
         offset="0.42737576"
         id="stop2679" />
      <stop
         style="stop-color:#e43c31;stop-opacity:1"
         offset="0.5248003"
         id="stop2681" />
      <stop
         style="stop-color:#e74234;stop-opacity:1"
         offset="0.68830961"
         id="stop2683" />
      <stop
         style="stop-color:#e84636;stop-opacity:1"
         offset="1"
         id="stop2685" />
    </linearGradient>
    <linearGradient
       x1="0"
       y1="0"
       x2="1"
       y2="0"
       gradientUnits="userSpaceOnUse"
       gradientTransform="matrix(-18.490309,-51.234665,50.801706,-18.647893,96.058548,200.86892)"
       spreadMethod="pad"
       id="linearGradient3239">
      <stop
         style="stop-opacity:1;stop-color:#eb4c3a"
         offset="0"
         id="stop3241" />
      <stop
         style="stop-opacity:1;stop-color:#df2e2a"
         offset="0.544937"
         id="stop3243" />
      <stop
         style="stop-opacity:1;stop-color:#9e2b28"
         offset="0.837082"
         id="stop3245" />
      <stop
         style="stop-opacity:1;stop-color:#802323"
         offset="1"
         id="stop3247" />
    </linearGradient>
    <linearGradient
       x1="0"
       y1="0"
       x2="1"
       y2="0"
       gradientUnits="userSpaceOnUse"
       gradientTransform="matrix(63.877977,-64.422379,63.877977,64.422379,16.485057,153.59527)"
       spreadMethod="pad"
       id="linearGradient3215">
      <stop
         style="stop-opacity:1;stop-color:#8dc8ec"
         offset="0"
         id="stop3217" />
      <stop
         style="stop-opacity:1;stop-color:#31a5e0"
         offset="0.376404"
         id="stop3219" />
      <stop
         style="stop-opacity:1;stop-color:#258fcf"
         offset="0.578659"
         id="stop3221" />
      <stop
         style="stop-opacity:1;stop-color:#2b4c96"
         offset="1"
         id="stop3223" />
    </linearGradient>
    <linearGradient
       x1="0"
       y1="0"
       x2="1"
       y2="0"
       gradientUnits="userSpaceOnUse"
       gradientTransform="matrix(72.280488,0,0,72.8965,31.038434,169.97143)"
       spreadMethod="pad"
       id="linearGradient3189">
      <stop
         style="stop-opacity:1;stop-color:#918f90"
         offset="0"
         id="stop3191" />
      <stop
         style="stop-opacity:1;stop-color:#c8c7c7"
         offset="0.33160588"
         id="stop3193" />
      <stop
         style="stop-opacity:1;stop-color:#e2e2e2"
         offset="0.52320772"
         id="stop3195" />
      <stop
         style="stop-opacity:1;stop-color:#c8c7c7"
         offset="0.69337463"
         id="stop3197" />
      <stop
         style="stop-opacity:1;stop-color:#918f90"
         offset="1"
         id="stop3199" />
    </linearGradient>
    <linearGradient
       x1="0"
       y1="0"
       x2="1"
       y2="0"
       gradientUnits="userSpaceOnUse"
       gradientTransform="matrix(37.916595,-104.17499,-104.17499,-37.916595,502.8584,301.89908)"
       spreadMethod="pad"
       id="linearGradient3263">
      <stop
         style="stop-opacity:1;stop-color:#f3dd25"
         offset="0"
         id="stop3265" />
      <stop
         style="stop-opacity:1;stop-color:#e98329"
         offset="0.584274"
         id="stop3267" />
      <stop
         style="stop-opacity:1;stop-color:#e98329"
         offset="0.584274"
         id="stop3269" />
      <stop
         style="stop-opacity:1;stop-color:#e85f2a"
         offset="1"
         id="stop3271" />
    </linearGradient>
    <linearGradient
       id="linearGradient1314">
      <stop
         style="stop-color:#e6e6cd;stop-opacity:1"
         offset="0"
         id="stop1310" />
      <stop
         style="stop-color:#d2783b;stop-opacity:1"
         offset="1"
         id="stop1312" />
    </linearGradient>
    <linearGradient
       id="linearGradient1308">
      <stop
         style="stop-color:#fe5000;stop-opacity:1"
         offset="0"
         id="stop1296" />
      <stop
         style="stop-color:#fc4e00;stop-opacity:1"
         offset="0.27569664"
         id="stop1298" />
      <stop
         style="stop-color:#f47c3c;stop-opacity:1"
         offset="0.42737576"
         id="stop1300" />
      <stop
         style="stop-color:#ef8a4d;stop-opacity:1"
         offset="0.5248003"
         id="stop1302" />
      <stop
         style="stop-color:#e7a975;stop-opacity:1"
         offset="0.68830961"
         id="stop1304" />
      <stop
         style="stop-color:#e4b786;stop-opacity:1"
         offset="1"
         id="stop1306" />
    </linearGradient>
    <linearGradient
       id="linearGradient1294">
      <stop
         style="stop-color:#fed74c;stop-opacity:1"
         offset="0"
         id="stop1290" />
      <stop
         style="stop-color:#ef8a02;stop-opacity:1"
         offset="1"
         id="stop1292" />
    </linearGradient>
    <linearGradient
       id="linearGradient941">
      <stop
         style="stop-color:#f4d229;stop-opacity:1"
         offset="0"
         id="stop937" />
      <stop
         style="stop-color:#f98007;stop-opacity:1"
         offset="1"
         id="stop939" />
    </linearGradient>
    <linearGradient
       id="linearGradient916">
      <stop
         style="stop-color:#cd0300;stop-opacity:1"
         offset="0"
         id="stop912" />
      <stop
         style="stop-color:#d10101;stop-opacity:1"
         offset="0.27569664"
         id="stop926" />
      <stop
         style="stop-color:#f63c06;stop-opacity:1"
         offset="0.42737576"
         id="stop924" />
      <stop
         style="stop-color:#fa5f04;stop-opacity:1"
         offset="0.5248003"
         id="stop920" />
      <stop
         style="stop-color:#fcab91;stop-opacity:1"
         offset="0.68830961"
         id="stop922" />
      <stop
         style="stop-color:#fbae90;stop-opacity:1"
         offset="1"
         id="stop914" />
    </linearGradient>
    <linearGradient
       id="linearGradient894">
      <stop
         style="stop-color:#f1c9c4;stop-opacity:1"
         offset="0"
         id="stop890" />
      <stop
         style="stop-color:#d83401;stop-opacity:1"
         offset="1"
         id="stop892" />
    </linearGradient>
    <linearGradient
       xlink:href="#linearGradient894"
       id="linearGradient896"
       x1="162.33997"
       y1="128.99928"
       x2="219.60417"
       y2="68.602676"
       gradientUnits="userSpaceOnUse"
       gradientTransform="translate(-127.59014,5.536171)" />
    <linearGradient
       xlink:href="#linearGradient916"
       id="linearGradient918"
       x1="124.16518"
       y1="115.28274"
       x2="163.34264"
       y2="155.71049"
       gradientUnits="userSpaceOnUse"
       gradientTransform="translate(-48.790731,-4.9420995)" />
    <linearGradient
       xlink:href="#linearGradient941"
       id="linearGradient943"
       x1="152.13542"
       y1="76.918152"
       x2="153.45834"
       y2="113.58184"
       gradientUnits="userSpaceOnUse"
       gradientTransform="matrix(3.7795276,0,0,3.7795276,-454.28576,-17.857117)" />
    <linearGradient
       xlink:href="#linearGradient916"
       id="linearGradient943-0"
       x1="195.03218"
       y1="113.53408"
       x2="234.42589"
       y2="155.4931"
       gradientUnits="userSpaceOnUse"
       gradientTransform="translate(-120.28469,-4.487267)" />
    <linearGradient
       xlink:href="#linearGradient1314"
       id="linearGradient1038"
       gradientUnits="userSpaceOnUse"
       gradientTransform="matrix(0.55017732,0,0,0.53023549,-154.38012,-95.685961)"
       x1="162.33997"
       y1="128.99928"
       x2="219.60417"
       y2="68.602676" />
    <linearGradient
       xlink:href="#linearGradient941"
       id="linearGradient943-0-9"
       x1="152.13542"
       y1="76.918152"
       x2="153.45834"
       y2="113.58184"
       gradientUnits="userSpaceOnUse"
       gradientTransform="translate(-120.28469,-4.4872616)" />
    <linearGradient
       xlink:href="#linearGradient1294"
       id="linearGradient1157"
       gradientUnits="userSpaceOnUse"
       gradientTransform="matrix(0.55017732,0,0,0.53023549,-150.31241,-101.12655)"
       x1="152.13542"
       y1="76.918152"
       x2="153.45834"
       y2="113.58184" />
    <linearGradient
       xlink:href="#linearGradient1308"
       id="linearGradient1166"
       x1="284.02777"
       y1="410.53363"
       x2="432.6192"
       y2="570.73047"
       gradientUnits="userSpaceOnUse"
       gradientTransform="matrix(0.14556776,0,0,0.14029147,-84.134587,-98.747205)" />
    <linearGradient
       xlink:href="#linearGradient2693"
       id="linearGradient1038-3"
       gradientUnits="userSpaceOnUse"
       gradientTransform="matrix(1.2290266,0,0,1.2154964,5.6907169,-133.95811)"
       x1="162.33997"
       y1="128.99928"
       x2="219.60417"
       y2="68.602676" />
    <linearGradient
       xlink:href="#linearGradient941"
       id="linearGradient1157-2"
       gradientUnits="userSpaceOnUse"
       gradientTransform="matrix(1.2290266,0,0,1.2154964,14.777475,-146.42996)"
       x1="152.13542"
       y1="76.918152"
       x2="153.45834"
       y2="113.58184" />
    <linearGradient
       xlink:href="#linearGradient2687"
       id="linearGradient1166-7"
       x1="284.02777"
       y1="410.53363"
       x2="432.6192"
       y2="570.73047"
       gradientUnits="userSpaceOnUse"
       gradientTransform="matrix(0.32517995,0,0,0.32160008,162.61037,-140.97562)" />
    <linearGradient
       xlink:href="#linearGradient1314"
       id="linearGradient1038-6"
       gradientUnits="userSpaceOnUse"
       gradientTransform="matrix(0.67646141,0,0,0.63933415,-52.675849,-42.582627)"
       x1="162.33997"
       y1="128.99928"
       x2="219.60417"
       y2="68.602676" />
    <linearGradient
       xlink:href="#linearGradient1294"
       id="linearGradient1157-3"
       gradientUnits="userSpaceOnUse"
       gradientTransform="matrix(0.67646141,0,0,0.63933415,-47.674458,-49.142643)"
       x1="152.13542"
       y1="76.918152"
       x2="153.45834"
       y2="113.58184" />
    <linearGradient
       xlink:href="#linearGradient1308"
       id="linearGradient1166-8"
       x1="284.02777"
       y1="410.53363"
       x2="432.6192"
       y2="570.73047"
       gradientUnits="userSpaceOnUse"
       gradientTransform="matrix(0.17898042,0,0,0.16915716,33.69339,-46.273736)" />
    <linearGradient
       xlink:href="#linearGradient3609"
       id="linearGradient1038-3-5"
       gradientUnits="userSpaceOnUse"
       gradientTransform="matrix(0.98906522,0,0,0.99968341,1472.869,520.61148)"
       x1="162.33997"
       y1="128.99928"
       x2="219.60417"
       y2="68.602676" />
    <linearGradient
       xlink:href="#linearGradient3601"
       id="linearGradient1157-2-71"
       gradientUnits="userSpaceOnUse"
       gradientTransform="matrix(0.98906522,0,0,0.99968341,1480.1816,510.35403)"
       x1="152.13542"
       y1="76.918152"
       x2="153.45834"
       y2="113.58184" />
    <linearGradient
       xlink:href="#linearGradient2693"
       id="linearGradient1038-3-1"
       gradientUnits="userSpaceOnUse"
       gradientTransform="matrix(0.95000834,0,0,0.95959155,-70.779402,-26.742335)"
       x1="162.33997"
       y1="128.99928"
       x2="219.60417"
       y2="68.602676" />
    <linearGradient
       xlink:href="#linearGradient941"
       id="linearGradient1157-2-8"
       gradientUnits="userSpaceOnUse"
       gradientTransform="matrix(0.95000834,0,0,0.95959155,-63.755554,-36.588416)"
       x1="152.13542"
       y1="76.918152"
       x2="153.45834"
       y2="113.58184" />
    <linearGradient
       xlink:href="#linearGradient2687"
       id="linearGradient1166-7-3"
       x1="284.02777"
       y1="410.53363"
       x2="432.6192"
       y2="570.73047"
       gradientUnits="userSpaceOnUse"
       gradientTransform="matrix(0.25135637,0,0,0.25389193,50.515762,-32.282407)" />
    <linearGradient
       xlink:href="#linearGradient3625"
       id="linearGradient3565"
       gradientUnits="userSpaceOnUse"
       gradientTransform="matrix(0.2616902,0,0,0.26449958,1599.1509,514.83995)"
       x1="298.24332"
       y1="431.33865"
       x2="432.6192"
       y2="570.73047" />
    <linearGradient
       xlink:href="#linearGradient1101"
       id="linearGradient3595"
       x1="287.46524"
       y1="-12.669914"
       x2="350.79102"
       y2="64.05925"
       gradientUnits="userSpaceOnUse"
       gradientTransform="translate(112.9368,107.75497)" />
    <linearGradient
       xlink:href="#linearGradient1101"
       id="linearGradient1066"
       gradientUnits="userSpaceOnUse"
       x1="64.98716"
       y1="-11.116532"
       x2="183.57796"
       y2="53.142109"
       gradientTransform="matrix(0.78548656,0,0,0.8088276,1493.4498,606.40367)" />
    <linearGradient
       xlink:href="#linearGradient1101"
       id="linearGradient4727"
       gradientUnits="userSpaceOnUse"
       gradientTransform="matrix(0.78548656,0,0,0.8088276,1497.3717,606.40367)"
       x1="64.98716"
       y1="-11.116532"
       x2="183.57796"
       y2="53.142109" />
    <linearGradient
       xlink:href="#linearGradient4771"
       id="linearGradient4759"
       x1="367.82547"
       y1="-67.302582"
       x2="417.56772"
       y2="-6.8075614"
       gradientUnits="userSpaceOnUse"
       gradientTransform="translate(-177.23928,-1.9143993)" />
    <linearGradient
       xlink:href="#linearGradient3625"
       id="linearGradient4776"
       gradientUnits="userSpaceOnUse"
       gradientTransform="matrix(0.82992548,0,0,0.77493852,1410.7979,645.10546)"
       x1="373.96835"
       y1="-60.410561"
       x2="417.56772"
       y2="-6.8075614" />
    <linearGradient
       id="linearGradient3625-2">
      <stop
         style="stop-color:#1b5079;stop-opacity:1"
         offset="0"
         id="stop3613-6" />
      <stop
         style="stop-color:#296088;stop-opacity:1"
         offset="0.27569664"
         id="stop3615-9" />
      <stop
         style="stop-color:#3b7ba1;stop-opacity:1"
         offset="0.42737576"
         id="stop3617-9" />
      <stop
         style="stop-color:#4188ab;stop-opacity:1"
         offset="0.5248003"
         id="stop3619-2" />
      <stop
         style="stop-color:#56a8c5;stop-opacity:1"
         offset="0.68830961"
         id="stop3621-6" />
      <stop
         style="stop-color:#67c2dc;stop-opacity:1"
         offset="1"
         id="stop3623-0" />
    </linearGradient>
    <linearGradient
       id="linearGradient3609-0">
      <stop
         style="stop-color:#91a9ca;stop-opacity:1"
         offset="0"
         id="stop3603-1" />
      <stop
         style="stop-color:#6677b4;stop-opacity:1"
         offset="0.37779927"
         id="stop3611-4" />
      <stop
         style="stop-color:#3a4cac;stop-opacity:1"
         offset="0.57814181"
         id="stop3605-7" />
      <stop
         style="stop-color:#39388f;stop-opacity:1"
         offset="1"
         id="stop3607-0" />
    </linearGradient>
    <linearGradient
       id="linearGradient3601-1">
      <stop
         style="stop-color:#a9d5ed;stop-opacity:1"
         offset="0"
         id="stop3597-7" />
      <stop
         style="stop-color:#0b71ae;stop-opacity:1"
         offset="1"
         id="stop3599-2" />
    </linearGradient>
    <linearGradient
       xlink:href="#linearGradient3609-0"
       id="linearGradient1038-3-5-4"
       gradientUnits="userSpaceOnUse"
       gradientTransform="matrix(1.0911541,0,0,0.99429837,117.60302,-25.692922)"
       x1="162.33997"
       y1="128.99928"
       x2="219.60417"
       y2="68.602676" />
    <linearGradient
       xlink:href="#linearGradient3601-1"
       id="linearGradient1157-2-71-6"
       gradientUnits="userSpaceOnUse"
       gradientTransform="matrix(1.0911541,0,0,0.99429837,125.67042,-35.89512)"
       x1="152.13542"
       y1="76.918152"
       x2="153.45834"
       y2="113.58184" />
    <linearGradient
       xlink:href="#linearGradient3625-2"
       id="linearGradient3565-9"
       gradientUnits="userSpaceOnUse"
       gradientTransform="matrix(0.28870119,0,0,0.26307478,256.91942,-31.433367)"
       x1="284.02777"
       y1="410.53363"
       x2="432.6192"
       y2="570.73047" />
    <linearGradient
       xlink:href="#linearGradient1101"
       id="linearGradient3595-3"
       x1="287.46524"
       y1="-12.669914"
       x2="350.79102"
       y2="64.05925"
       gradientUnits="userSpaceOnUse"
       gradientTransform="matrix(0.90775433,0,0,0.58191413,126.23878,59.50473)" />
    <linearGradient
       xlink:href="#linearGradient1101"
       id="linearGradient3647"
       gradientUnits="userSpaceOnUse"
       x1="64.98716"
       y1="-11.116532"
       x2="176.01843"
       y2="54.276039"
       gradientTransform="matrix(0.82925739,0,0,0.82346638,59.383101,96.357779)" />
    <linearGradient
       xlink:href="#linearGradient1101"
       id="linearGradient3649"
       gradientUnits="userSpaceOnUse"
       x1="64.98716"
       y1="-11.116532"
       x2="176.01843"
       y2="54.276039"
       gradientTransform="matrix(0.83388128,0,0,0.82346649,55.168307,96.357798)" />
    <linearGradient
       id="linearGradient1363">
      <stop
         style="stop-color:#a3a3a2;stop-opacity:1"
         offset="0"
         id="stop1357" />
      <stop
         style="stop-color:#d8d8d8;stop-opacity:1"
         offset="1"
         id="stop1359" />
    </linearGradient>
    <linearGradient
       id="linearGradient1201">
      <stop
         style="stop-color:#a3a3a2;stop-opacity:1"
         offset="0"
         id="stop1197" />
      <stop
         style="stop-color:#d8d8d8;stop-opacity:1"
         offset="0.50927985"
         id="stop1205" />
      <stop
         style="stop-color:#9e9e9d;stop-opacity:1"
         offset="1"
         id="stop1199" />
    </linearGradient>
    <linearGradient
       xlink:href="#linearGradient1363"
       id="linearGradient1217"
       x1="109.85609"
       y1="6.9178905"
       x2="122.49963"
       y2="26.486164"
       gradientUnits="userSpaceOnUse"
       gradientTransform="matrix(0.90429101,0,0,0.65990623,108.18568,115.45363)" />
    <linearGradient
       xlink:href="#linearGradient1201"
       id="linearGradient1281"
       x1="-1.5875"
       y1="6.6097193"
       x2="54.512978"
       y2="39.293621"
       gradientUnits="userSpaceOnUse" />
    <linearGradient
       xlink:href="#linearGradient1201"
       id="linearGradient3734"
       gradientUnits="userSpaceOnUse"
       x1="-1.5875"
       y1="6.6097193"
       x2="54.512978"
       y2="39.293621"
       gradientTransform="matrix(1.6827061,0,0,1.5761317,454.71979,-29.393611)" />
    <linearGradient
       id="linearGradient3625-21">
      <stop
         style="stop-color:#613f96;stop-opacity:1"
         offset="0"
         id="stop3613-1" />
      <stop
         style="stop-color:#8353ae;stop-opacity:1"
         offset="0.32599512"
         id="stop3615-4" />
      <stop
         style="stop-color:#9862b7;stop-opacity:1"
         offset="0.42737576"
         id="stop3617-4" />
      <stop
         style="stop-color:#ab76c1;stop-opacity:1"
         offset="0.59872055"
         id="stop3619-9" />
      <stop
         style="stop-color:#b790ce;stop-opacity:1"
         offset="0.81174153"
         id="stop3621-3" />
      <stop
         style="stop-color:#c6b0dd;stop-opacity:1"
         offset="1"
         id="stop3623-3" />
    </linearGradient>
    <linearGradient
       id="linearGradient3609-5">
      <stop
         style="stop-color:#d3cbe9;stop-opacity:1"
         offset="0"
         id="stop3603-4" />
      <stop
         style="stop-color:#947bc4;stop-opacity:1"
         offset="0.37779927"
         id="stop3611-9" />
      <stop
         style="stop-color:#745bb2;stop-opacity:1"
         offset="0.61771888"
         id="stop3605-5" />
      <stop
         style="stop-color:#5941a2;stop-opacity:1"
         offset="1"
         id="stop3607-8" />
    </linearGradient>
    <linearGradient
       id="linearGradient3601-8">
      <stop
         style="stop-color:#d5c1e4;stop-opacity:1"
         offset="0"
         id="stop3597-0" />
      <stop
         style="stop-color:#924eac;stop-opacity:1"
         offset="1"
         id="stop3599-23" />
    </linearGradient>
    <linearGradient
       xlink:href="#linearGradient3609"
       id="linearGradient1038-3-5-3"
       gradientUnits="userSpaceOnUse"
       gradientTransform="matrix(3.2784756,0,0,3.3270214,1270.1858,262.60539)"
       x1="162.33997"
       y1="128.99928"
       x2="219.60417"
       y2="68.602676" />
    <linearGradient
       xlink:href="#linearGradient3601"
       id="linearGradient1157-2-71-0"
       gradientUnits="userSpaceOnUse"
       gradientTransform="matrix(3.2784756,0,0,3.3270214,1294.425,228.46783)"
       x1="152.13542"
       y1="76.918152"
       x2="153.45834"
       y2="113.58184" />
    <linearGradient
       xlink:href="#linearGradient3625"
       id="linearGradient3565-1"
       gradientUnits="userSpaceOnUse"
       gradientTransform="matrix(0.86743014,0,0,0.88027444,1688.7751,243.3973)"
       x1="298.24332"
       y1="431.33865"
       x2="432.6192"
       y2="570.73047" />
    <linearGradient
       xlink:href="#linearGradient1101"
       id="linearGradient1066-7"
       gradientUnits="userSpaceOnUse"
       x1="64.98716"
       y1="-11.116532"
       x2="183.57796"
       y2="53.142109"
       gradientTransform="matrix(0.78548656,0,0,0.8088276,-54.96852,19.208641)" />
    <linearGradient
       xlink:href="#linearGradient1101"
       id="linearGradient4727-5"
       gradientUnits="userSpaceOnUse"
       gradientTransform="matrix(0.78548656,0,0,0.8088276,-51.04656,19.208641)"
       x1="64.98716"
       y1="-11.116532"
       x2="183.57796"
       y2="53.142109" />
    <linearGradient
       xlink:href="#linearGradient4771"
       id="linearGradient4776-4"
       gradientUnits="userSpaceOnUse"
       gradientTransform="matrix(0.82992548,0,0,0.77493852,-137.62038,57.910428)"
       x1="367.82547"
       y1="-67.302582"
       x2="417.56772"
       y2="-6.8075614" />
    <linearGradient
       id="linearGradient1962">
      <stop
         style="stop-color:#bbbec4;stop-opacity:1"
         offset="0"
         id="stop1958" />
      <stop
         style="stop-color:#d9dbdf;stop-opacity:1"
         offset="0.49528301"
         id="stop1966" />
      <stop
         style="stop-color:#babdc3;stop-opacity:1"
         offset="1"
         id="stop1960" />
    </linearGradient>
    <linearGradient
       id="linearGradient1934">
      <stop
         style="stop-color:#ebe9ec;stop-opacity:1"
         offset="0"
         id="stop1930" />
      <stop
         style="stop-color:#bfc3c7;stop-opacity:1"
         offset="1"
         id="stop1932" />
    </linearGradient>
    <linearGradient
       xlink:href="#linearGradient2693"
       id="linearGradient1038-3-6"
       gradientUnits="userSpaceOnUse"
       gradientTransform="matrix(1.2290266,0,0,1.2154964,-177.31257,68.84347)"
       x1="162.33997"
       y1="128.99928"
       x2="219.60417"
       y2="68.602676" />
    <linearGradient
       xlink:href="#linearGradient941"
       id="linearGradient1157-2-1"
       gradientUnits="userSpaceOnUse"
       gradientTransform="matrix(1.2290266,0,0,1.2154964,-168.22581,56.37162)"
       x1="152.13542"
       y1="76.918152"
       x2="153.45834"
       y2="113.58184" />
    <linearGradient
       xlink:href="#linearGradient2687"
       id="linearGradient1166-7-9"
       x1="284.02777"
       y1="410.53363"
       x2="432.6192"
       y2="570.73047"
       gradientUnits="userSpaceOnUse"
       gradientTransform="matrix(0.32517995,0,0,0.32160008,-20.39292,61.82596)" />
    <linearGradient
       xlink:href="#linearGradient3609-0"
       id="linearGradient1038-3-5-33"
       gradientUnits="userSpaceOnUse"
       gradientTransform="matrix(1.3064166,0,0,1.235966,0.785266,-135.44741)"
       x1="162.33997"
       y1="128.99928"
       x2="219.60417"
       y2="68.602676" />
    <linearGradient
       xlink:href="#linearGradient3601-1"
       id="linearGradient1157-2-71-3"
       gradientUnits="userSpaceOnUse"
       gradientTransform="matrix(1.3064166,0,0,1.235966,10.444198,-148.12929)"
       x1="152.13542"
       y1="76.918152"
       x2="153.45834"
       y2="113.58184" />
    <linearGradient
       xlink:href="#linearGradient1101"
       id="linearGradient1066-8"
       gradientUnits="userSpaceOnUse"
       x1="64.98716"
       y1="-11.116532"
       x2="183.57796"
       y2="53.142109"
       gradientTransform="translate(-146.15279,172.51685)" />
    <linearGradient
       xlink:href="#linearGradient1101"
       id="linearGradient1068"
       gradientUnits="userSpaceOnUse"
       x1="64.98716"
       y1="-11.116532"
       x2="183.57796"
       y2="53.142109"
       gradientTransform="translate(-153.25979,172.51684)" />
    <linearGradient
       id="linearGradient1221">
      <stop
         style="stop-color:#999999;stop-opacity:1"
         offset="0"
         id="stop1217" />
      <stop
         style="stop-color:#e6e6e6;stop-opacity:1"
         offset="0.14464408"
         id="stop1225" />
      <stop
         style="stop-color:#999999;stop-opacity:1"
         offset="0.45821938"
         id="stop1227" />
      <stop
         style="stop-color:#e6e6e6;stop-opacity:1"
         offset="0.71823406"
         id="stop1229" />
      <stop
         style="stop-color:#999999;stop-opacity:1"
         offset="1"
         id="stop1219" />
    </linearGradient>
    <linearGradient
       xlink:href="#linearGradient1221"
       id="linearGradient1223"
       x1="126.5793"
       y1="265.57428"
       x2="554.56842"
       y2="343.95132"
       gradientUnits="userSpaceOnUse" />
    <linearGradient
       xlink:href="#linearGradient3609-0"
       id="linearGradient1038-3-5-5"
       gradientUnits="userSpaceOnUse"
       gradientTransform="matrix(1.0911541,0,0,0.99429837,23.757292,10.561029)"
       x1="162.33997"
       y1="128.99928"
       x2="219.60417"
       y2="68.602676" />
    <linearGradient
       xlink:href="#linearGradient3601-1"
       id="linearGradient1157-2-71-6-3"
       gradientUnits="userSpaceOnUse"
       gradientTransform="matrix(1.0911541,0,0,0.99429837,31.824689,0.35883069)"
       x1="152.13542"
       y1="76.918152"
       x2="153.45834"
       y2="113.58184" />
    <linearGradient
       xlink:href="#linearGradient3625-5"
       id="linearGradient3565-5"
       gradientUnits="userSpaceOnUse"
       gradientTransform="matrix(0.2646116,0,0,0.26307478,-62.02535,108.27708)"
       x1="284.02777"
       y1="410.53363"
       x2="432.6192"
       y2="570.73047" />
    <linearGradient
       id="linearGradient3625-5">
      <stop
         style="stop-color:#1f4a7b;stop-opacity:1"
         offset="0"
         id="stop3613-7" />
      <stop
         style="stop-color:#115f8e;stop-opacity:1"
         offset="0.27569664"
         id="stop3615-4-9" />
      <stop
         style="stop-color:#027aa8;stop-opacity:1"
         offset="0.42737576"
         id="stop3617-6" />
      <stop
         style="stop-color:#249cc6;stop-opacity:1"
         offset="0.60463846"
         id="stop3619-8" />
      <stop
         style="stop-color:#56a8c5;stop-opacity:1"
         offset="0.68830961"
         id="stop3621-0" />
      <stop
         style="stop-color:#67c2dc;stop-opacity:1"
         offset="1"
         id="stop3623-5" />
    </linearGradient>
    <linearGradient
       xlink:href="#linearGradient2319"
       id="linearGradient1038-3-5-8"
       gradientUnits="userSpaceOnUse"
       gradientTransform="matrix(1.0001068,0,0,0.99429837,-189.71701,114.01753)"
       x1="162.33997"
       y1="128.99928"
       x2="219.60417"
       y2="68.602676" />
    <linearGradient
       xlink:href="#linearGradient3601-1"
       id="linearGradient1157-2-71-0-4"
       gradientUnits="userSpaceOnUse"
       gradientTransform="matrix(1.0001068,0,0,0.99429837,-182.32277,103.81533)"
       x1="152.13542"
       y1="76.918152"
       x2="153.45834"
       y2="113.58184" />
    <linearGradient
       xlink:href="#linearGradient1101"
       id="linearGradient3595-9"
       x1="287.46524"
       y1="-12.669914"
       x2="350.79102"
       y2="64.05925"
       gradientUnits="userSpaceOnUse"
       gradientTransform="matrix(0.60144447,0,0,0.79353795,-109.55502,198.17627)" />
    <linearGradient
       xlink:href="#linearGradient1101"
       id="linearGradient3961"
       gradientUnits="userSpaceOnUse"
       gradientTransform="matrix(3.0615198,0,0,3.0945414,-198.95947,73.549984)"
       x1="64.98716"
       y1="-11.116532"
       x2="197.46527"
       y2="57.866776" />
    <linearGradient
       xlink:href="#linearGradient1101"
       id="linearGradient3963"
       gradientUnits="userSpaceOnUse"
       gradientTransform="matrix(0.81454377,0,0,0.81876419,664.78649,854.01812)"
       x1="64.98716"
       y1="-11.116532"
       x2="176.01843"
       y2="54.276039" />
    <linearGradient
       xlink:href="#linearGradient1934"
       id="linearGradient1936"
       x1="170.86371"
       y1="232.7925"
       x2="170.86371"
       y2="260.19577"
       gradientUnits="userSpaceOnUse" />
    <linearGradient
       xlink:href="#linearGradient1962"
       id="linearGradient1964"
       x1="168.78467"
       y1="225.98895"
       x2="248.91562"
       y2="225.98895"
       gradientUnits="userSpaceOnUse" />
    <linearGradient
       id="linearGradient2111">
      <stop
         style="stop-color:#626061;stop-opacity:1"
         offset="0"
         id="stop2107" />
      <stop
         style="stop-color:#d2d2d2;stop-opacity:1"
         offset="0.19655181"
         id="stop2121" />
      <stop
         style="stop-color:#636061;stop-opacity:1;"
         offset="0.37586215"
         id="stop2115" />
      <stop
         style="stop-color:#636061;stop-opacity:1;"
         offset="0.63448286"
         id="stop2117" />
      <stop
         style="stop-color:#e1e1e1;stop-opacity:1"
         offset="0.77931041"
         id="stop2119" />
      <stop
         style="stop-color:#656263;stop-opacity:1"
         offset="1"
         id="stop2109" />
    </linearGradient>
    <linearGradient
       id="linearGradient2093">
      <stop
         style="stop-color:#e0e0e0;stop-opacity:1"
         offset="0"
         id="stop2089" />
      <stop
         style="stop-color:#a9a9a9;stop-opacity:1"
         offset="1"
         id="stop2091" />
    </linearGradient>
    <linearGradient
       id="linearGradient2085">
      <stop
         style="stop-color:#ffffff;stop-opacity:1"
         offset="0"
         id="stop2081" />
      <stop
         style="stop-color:#9e9b9c;stop-opacity:1"
         offset="1"
         id="stop2083" />
    </linearGradient>
    <linearGradient
       xlink:href="#linearGradient2085"
       id="linearGradient2087"
       x1="119.44746"
       y1="290.24597"
       x2="119.44746"
       y2="320.67303"
       gradientUnits="userSpaceOnUse" />
    <linearGradient
       xlink:href="#linearGradient2093"
       id="linearGradient2095"
       x1="482.85715"
       y1="247.14287"
       x2="482.85715"
       y2="391.42856"
       gradientUnits="userSpaceOnUse" />
    <linearGradient
       xlink:href="#linearGradient2111"
       id="linearGradient2113"
       x1="116.61263"
       y1="263.59863"
       x2="116.61263"
       y2="318.40518"
       gradientUnits="userSpaceOnUse" />
  </defs>
  <metadata
     id="metadata5">
    <rdf:RDF>
      <cc:Work
         rdf:about="">
        <dc:format>image/svg+xml</dc:format>
        <dc:type
           rdf:resource="http://purl.org/dc/dcmitype/StillImage" />
        <dc:title></dc:title>
      </cc:Work>
    </rdf:RDF>
  </metadata>
  <g
     id="layer1"
     transform="translate(-1175.8073,-1008.8541)">
    <ellipse
       style="fill:#da1b10;fill-opacity:1;fill-rule:evenodd;stroke:none;stroke-width:23.0225;stroke-linecap:round;stroke-linejoin:miter;stroke-miterlimit:4;stroke-dasharray:none;stroke-opacity:1;paint-order:stroke fill markers;stop-color:#000000"
       id="path3272"
       cx="1268.0569"
       cy="1063.2827"
       rx="92.249588"
       ry="54.42857" />
    <path
       id="path3192"
       style="fill:#ec2e15;fill-opacity:1;stroke:none;stroke-width:0.58071px;stroke-linecap:butt;stroke-linejoin:miter;stroke-opacity:1"
       d="m 1100.5099,1046.4662 c -0.3138,0 -0.6204,0.029 -0.9209,0.061 -2.4025,0.2678 -4.3556,1.3228 -5.7039,2.9909 -1.3483,1.668 -2.0912,3.9487 -1.8057,5.6595 0.2856,1.7111 1.5983,2.8522 3.3267,3.7248 1.7284,0.8727 3.8721,1.478 5.8424,1.9793 1.97,0.5011 3.7674,0.8988 5.2535,2.2989 1.4861,1.4003 2.6614,3.8016 3.3267,6.6101 0.6652,2.8087 0.8208,6.0239 -0.3631,9.0828 -1.1838,3.0589 -3.7072,5.9624 -5.8241,7.3449 -2.1169,1.3827 -3.828,1.2447 -5.3058,0.079 -1.4777,-1.1663 -2.7217,-3.3622 -3.2665,-5.5054 -0.5445,-2.1431 -0.3893,-4.2341 0.077,-6.144 0.4666,-1.9099 1.2443,-3.6385 1.6332,-4.5026 0.3889,-0.8644 0.3885,-0.8637 0.6477,-1.2783 0.2592,-0.4148 0.7772,-1.2449 1.0796,-1.893 0.3025,-0.6481 0.3889,-1.1148 -0.2414,-1.6593 -0.6306,-0.5445 -1.9782,-1.1659 -3.0932,-1.9782 -1.1147,-0.8121 -1.9968,-1.8149 -2.8956,-2.4373 -0.8985,-0.6225 -1.8147,-0.8639 -2.5236,-0.8812 -0.7087,-0.022 -1.2093,0.1887 -1.8577,0.8812 -0.6483,0.6913 -1.4437,1.8669 -2.5067,4.4074 -1.0627,2.5407 -2.3932,6.4466 -3.0929,10.4824 -0.6997,4.0356 -0.7693,8.2007 0.026,11.571 0.7954,3.3704 2.4552,5.9456 5.4884,8.0971 3.0334,2.1516 7.4411,3.8802 11.8048,3.8541 4.3637,-0.026 8.684,-1.8065 11.8899,-4.1137 3.2058,-2.3074 5.2968,-5.142 7.1376,-8.7799 1.8405,-3.6381 3.4313,-8.0795 3.2845,-13.5582 -0.1471,-5.4787 -2.0309,-11.9945 -4.6923,-16.4278 -2.6614,-4.4333 -6.1005,-6.7837 -9.2459,-8.2184 -2.7522,-1.2555 -5.2804,-1.8083 -7.479,-1.7478 z m -94.9982,0.3083 c -1.2679,0.022 -2.6671,0.1976 -4.0117,0.6749 -2.68882,0.9532 -5.15762,3.0805 -8.11532,7.9202 -2.9575,4.8396 -6.4029,12.3915 -8.3216,17.3656 -1.9185,4.9741 -2.3107,7.3691 -3.0804,8.8844 -0.7697,1.5151 -1.9183,2.1509 -2.9207,3.0554 -1.0021,0.9045 -1.8579,2.0778 -2.139,3.6668 -0.281,1.5891 0.022,3.593 0.9789,5.0347 0.9657,1.442 2.6032,2.3217 5.3285,3.0181 2.7253,0.6966 6.5386,1.21 10.498,0.4278 3.9595,-0.7825 8.06552,-2.8601 10.44842,-4.6197 2.3829,-1.7595 3.0425,-3.2011 3.5069,-4.6797 0.4644,-1.4787 0.7333,-2.9942 0.3426,-4.3995 -0.3909,-1.4054 -1.4416,-2.7005 -2.6882,-3.4707 -1.2464,-0.7702 -2.6891,-1.0158 -3.9968,-0.9914 -1.3078,0.024 -2.48082,0.3183 -2.99432,0.1471 -0.5136,-0.1712 -0.3672,-0.8066 1.3316,-4.0207 1.69852,-3.2143 4.94972,-9.0069 7.18622,-13.5163 2.2365,-4.5095 3.459,-7.7363 3.997,-9.6304 0.5377,-1.8943 0.3902,-2.456 0.1339,-3.0183 -0.2566,-0.5621 -0.6229,-1.1238 -2.2607,-1.5153 -0.8187,-0.1953 -1.9554,-0.3485 -3.2233,-0.3334 z m 33.443,0.5354 c -2.2361,0 -4.8354,0.1031 -7.463,0.4457 -4.2042,0.5498 -8.4819,1.6986 -11.2195,3.0918 -2.7378,1.3933 -3.935,3.0306 -4.4971,4.3995 -0.5621,1.3692 -0.489,2.469 -0.097,3.3733 0.3913,0.9042 1.1,1.6134 1.699,2.1877 0.5988,0.5744 1.0873,1.014 0.8426,2.8469 -0.2447,1.8331 -1.2219,5.0593 -2.5416,8.5179 -1.32,3.4586 -2.9825,7.1498 -4.0457,10.5107 -1.0634,3.3609 -1.528,6.3913 -0.9778,8.7378 0.5503,2.3464 2.1147,4.0088 4.6322,4.7173 2.5174,0.7082 5.9892,0.464 9.1666,-0.1229 3.1772,-0.5865 6.0608,-1.5151 8.2604,-3.0306 2.1994,-1.5153 3.7147,-3.6175 4.4844,-5.1572 0.77,-1.5394 0.7946,-2.5174 0.7577,-3.4219 -0.037,-0.9043 -0.1339,-1.7352 -0.525,-2.2852 -0.3907,-0.5503 -1.0759,-0.8187 -2.0904,-0.9653 -1.0144,-0.1471 -2.3581,-0.1712 -3.507,-0.037 -1.149,0.1338 -2.1025,0.4275 -3.0067,0.5862 -0.9043,0.158 -1.7598,0.1822 -2.1878,-0.3062 -0.4282,-0.4885 -0.4278,-1.4898 -0.4278,-2.1742 0,-0.6843 5e-4,-1.0522 0.1844,-1.3702 0.1822,-0.318 0.5498,-0.5862 0.9288,-0.7326 0.3791,-0.1471 0.7704,-0.1712 1.8702,-0.1712 1.1001,0 2.9079,0.024 4.4597,-0.5015 1.5519,-0.5255 2.8469,-1.6011 3.6532,-2.6641 0.8066,-1.0629 1.1251,-2.1131 1.284,-3.0907 0.158,-0.9776 0.158,-1.8827 -0.1229,-2.5791 -0.2807,-0.6967 -0.8424,-1.1859 -2.0767,-1.6016 -1.2342,-0.4157 -3.1408,-0.7579 -4.0945,-0.9288 -0.9536,-0.1712 -0.9532,-0.1712 -0.9778,-0.3541 -0.024,-0.1821 -0.072,-0.5491 0.2939,-1.2339 0.3666,-0.6848 1.1481,-1.6865 1.6617,-2.2242 0.5134,-0.5377 0.7577,-0.611 1.4302,-0.5987 0.6722,0.022 1.7723,0.1097 3.703,-0.2202 1.9308,-0.3301 4.6923,-1.0882 6.7451,-2.2003 2.0531,-1.1121 3.3972,-2.5778 4.0572,-4.0683 0.6599,-1.4907 0.636,-3.0069 0.2699,-4.0946 -0.3663,-1.0876 -1.0741,-1.7473 -2.0517,-2.224 -0.9778,-0.477 -2.2249,-0.7702 -4.9135,-0.9416 -1.0083,-0.064 -2.2185,-0.1119 -3.5602,-0.1163 z m 31.8893,0.5989 c -2.3281,-0.055 -5.0441,0.4039 -8.5089,1.8261 -3.9596,1.6253 -8.8966,4.5092 -12.6487,8.5304 -3.752,4.0208 -6.3186,9.1771 -7.8462,13.7112 -1.5278,4.5342 -2.0161,8.4451 -1.9305,12.0872 0.086,3.6421 0.7449,7.0144 2.5418,9.2018 1.7966,2.1873 4.7304,3.1903 7.7,3.6181 2.9696,0.4276 5.9756,0.2798 8.114,-0.1119 2.1386,-0.3911 3.4099,-1.0259 4.6809,-1.2089 1.2712,-0.1822 2.5422,0.086 3.7033,0.3788 1.1611,0.2932 2.2122,0.6108 3.1531,0.6962 0.9409,0.086 1.7721,-0.062 2.224,-0.5013 0.4519,-0.4396 0.525,-1.1729 0.7815,-2.7005 0.2566,-1.5276 0.6969,-3.8493 1.5891,-6.6237 0.8922,-2.7743 2.2356,-6 3.4943,-8.4566 1.259,-2.4565 2.4323,-4.1432 3.0069,-5.3773 0.5746,-1.2339 0.5505,-2.0157 0.27,-2.688 -0.2807,-0.672 -0.8187,-1.2346 -1.7229,-1.4914 -0.9045,-0.257 -2.1749,-0.2085 -3.6658,-0.1843 -1.4909,0.024 -3.202,0.024 -4.5584,-0.1954 -1.3564,-0.2199 -2.3592,-0.6597 -3.2881,-0.9653 -0.9286,-0.3055 -1.7843,-0.4769 -2.9579,0.037 -1.1736,0.5133 -2.6643,1.7113 -3.862,3.1655 -1.1977,1.4545 -2.1017,3.1647 -2.1992,4.326 -0.097,1.1611 0.6113,1.7725 1.4179,2.0778 0.8063,0.3051 1.7104,0.3049 2.2966,0.574 0.5862,0.2691 0.8549,0.807 0.5614,1.8089 -0.2934,1.002 -1.1485,2.469 -2.1504,3.2631 -1.0017,0.7943 -2.1505,0.9156 -3.0794,0.7815 -0.9286,-0.1338 -1.6373,-0.5254 -2.2729,-1.2341 -0.6356,-0.7085 -1.1981,-1.7348 -1.4427,-3.6656 -0.2445,-1.931 -0.1711,-4.7666 1.0753,-7.4801 1.2464,-2.7134 3.6662,-5.304 5.536,-6.9538 1.8699,-1.6499 3.1901,-2.3586 4.3758,-2.713 1.1856,-0.3545 2.2369,-0.3538 3.288,0.2085 1.0511,0.5625 2.1015,1.6856 3.2382,2.5043 1.1365,0.8186 2.3583,1.3329 3.9957,1.2839 1.6375,-0.048 3.691,-0.6608 5.1084,-1.5039 1.4174,-0.8432 2.1996,-1.9182 2.4931,-3.4945 0.2934,-1.5763 0.099,-3.6535 -0.7816,-5.511 -0.8797,-1.8577 -2.4439,-3.4961 -4.277,-4.7184 -1.8331,-1.2223 -3.9353,-2.0289 -6.4773,-2.249 -0.3178,-0.029 -0.6429,-0.046 -0.9754,-0.053 z" />
    <g
       id="g3347"
       transform="translate(0.53453906)">
      <g
         id="g3333">
        <path
           id="path3246"
           style="fill:#000000;fill-opacity:1;fill-rule:evenodd;stroke:none;stroke-width:7.39819;stroke-linecap:round;stroke-linejoin:miter;stroke-miterlimit:4;stroke-dasharray:none;stroke-opacity:1;paint-order:stroke fill markers;stop-color:#000000"
           d="m 1191.2015,1054.8491 c -3.391,0.01 -6.1374,2.7553 -6.1376,6.1463 -1e-4,3.3949 2.752,6.147 6.1469,6.1468 2.8974,0 5.4013,-2.0233 6.0096,-4.8561 h 139.8344 c 0.6083,2.8328 3.1122,4.8561 6.0096,4.8561 3.3948,10e-5 6.1469,-2.752 6.1468,-6.1468 -2e-4,-3.3946 -2.7522,-6.1464 -6.1468,-6.1463 -2.8764,0 -5.3681,1.9948 -5.9976,4.8014 h -139.8584 c -0.6295,-2.8066 -3.1212,-4.8014 -5.9976,-4.8014 h -0.01 z" />
        <g
           id="path3223"
           transform="matrix(0.2441283,0,0,0.2441283,1021.9617,964.56763)"
           style="opacity:1">
          <path
             style="color:#000000;font-style:normal;font-variant:normal;font-weight:normal;font-stretch:normal;font-size:medium;line-height:normal;font-family:sans-serif;font-variant-ligatures:normal;font-variant-position:normal;font-variant-caps:normal;font-variant-numeric:normal;font-variant-alternates:normal;font-variant-east-asian:normal;font-feature-settings:normal;font-variation-settings:normal;text-indent:0;text-align:start;text-decoration:none;text-decoration-line:none;text-decoration-style:solid;text-decoration-color:#000000;letter-spacing:normal;word-spacing:normal;text-transform:none;writing-mode:lr-tb;direction:ltr;text-orientation:mixed;dominant-baseline:auto;baseline-shift:baseline;text-anchor:start;white-space:normal;shape-padding:0;shape-margin:0;inline-size:0;clip-rule:nonzero;display:inline;overflow:visible;visibility:visible;isolation:auto;mix-blend-mode:normal;color-interpolation:sRGB;color-interpolation-filters:linearRGB;solid-color:#000000;solid-opacity:1;vector-effect:none;fill:#000000;fill-opacity:1;fill-rule:nonzero;stroke:none;stroke-linecap:butt;stroke-linejoin:miter;stroke-miterlimit:4;stroke-dasharray:none;stroke-dashoffset:0;stroke-opacity:1;paint-order:stroke fill markers;color-rendering:auto;image-rendering:auto;shape-rendering:auto;text-rendering:auto;enable-background:accumulate;stop-color:#000000;stop-opacity:1"
             d="m 1175.9238,276.28516 c -6.6702,0.18942 -12.4943,1.55825 -17.3144,3.05273 -6.4267,1.99262 -15.9398,5.76541 -22.9961,14.65625 -4.8726,6.13941 -7.979,13.04043 -9.5098,20.51953 -1.1169,-2.38155 -2.3636,-4.72221 -3.8672,-6.95508 -8.1127,-12.04764 -21.3517,-20.833 -37.6308,-25.16406 -7.122,-1.89476 -14.9478,-2.97344 -23.2696,-2.91992 -10.6991,0.0688 -22.2213,2.03125 -33.8984,6.5332 -14.9058,5.74669 -30.1223,15.83357 -43.29492,30.89063 -0.10944,-0.48501 -0.1768,-1.00947 -0.30469,-1.47461 -2.84872,-10.36125 -12.61208,-23.10935 -28.64648,-28.67774 -12.02525,-4.17609 -26.40003,-5.78947 -40.79102,-5.78515 -4.79656,0.001 -9.56246,0.21575 -14.1875,0.67578 -18.4988,1.83997 -33.61105,7.34775 -44.67383,16.15039 -4.00966,3.19049 -7.39696,6.88689 -10.08789,10.89453 -0.21439,-0.85665 -0.35328,-1.82318 -0.62305,-2.5957 v -0.002 h -0.002 c -2.37232,-6.79075 -10.1043,-13.67222 -15.03515,-15.85742 l -0.002,-0.002 c -4.31555,-1.91225 -10.32025,-3.92287 -17.78711,-4.10547 -1.06882,-0.0261 -2.16462,-0.0118 -3.2832,0.0488 -8.95158,0.48599 -19.33474,4.79127 -29.3125,13.34375 -9.97766,8.55202 -22.07616,22.75744 -32.98633,46.3125 -10.91026,23.5557 -20.44335,55.17994 -25.55273,72.07031 v 0.002 c -2.47157,8.1708 -3.85811,12.6944 -4.59766,14.76563 -1.1086,0.54744 -5.11974,3.11746 -9.84765,8.60156 v 0.002 c -5.70699,6.62126 -8.38094,13.87562 -10.10157,20.81446 -0.86017,3.46886 -1.8856,8.37468 -0.9375,14.35742 0.9481,5.98274 4.32362,12.37597 9.12696,17.06836 9.60588,9.38403 23.73315,15.15058 41.98828,16.63281 18.2543,1.48266 37.97826,-1.70264 53.75586,-8.1289 7.99131,-3.25489 14.48796,-7.50662 19.69531,-12.08985 5.44287,7.38339 13.38634,12.76708 21.23828,15.26172 12.30336,3.9089 25.71944,4.32775 39.25391,3.6875 13.5335,-0.6402 27.75073,-2.5521 40.99023,-7.47852 13.23857,-4.92605 24.07883,-12.03413 31.62305,-21.24023 2.12167,-2.58905 3.72077,-5.32027 5.05469,-8.07422 5.93261,11.4242 13.49734,20.65866 21.33984,27.34571 15.8658,13.52828 33.95217,15.20661 45.52347,13.34374 8.1375,-1.31008 14.5556,-4.0575 19.2675,-6.67968 1.9353,1.42701 4.0865,2.89754 6.6348,4.27148 v 0.002 c 6.6288,3.57382 13.9419,5.40773 21.2578,5.47265 3.6565,0.0324 8.9814,-0.29978 14.5508,-3.24219 5.5694,-2.94241 10.2749,-8.50561 12.832,-14.54687 5.1138,-12.08144 5.1953,-23.81353 7.418,-35.19531 0.2074,-1.06223 0.545,-2.05005 0.7754,-3.11328 4.98,16.66568 13.9778,33.67688 30.6894,44.64843 23.2576,15.26902 52.431,13.20212 75.0176,3.53711 22.5864,-9.66492 36.2137,-27.66392 44.9199,-43.61719 8.7067,-15.95409 13.7208,-32.1561 16.5079,-49.65429 2.7871,-17.49866 3.8425,-38.051 -2.1602,-58.8125 -6.0028,-20.7613 -17.7954,-38.73408 -28.6738,-50.84961 -10.8789,-12.11598 -22.2838,-18.16423 -31.8985,-21.65625 -9.6161,-3.49254 -19.7188,-6.08478 -29.2695,-6.85352 -2.3821,-0.19174 -4.688,-0.25473 -6.918,-0.1914 z m 0.918,32.35937 c 1.0098,-0.0287 2.1224,-0.005 3.4023,0.0977 5.097,0.41026 13.5123,2.36083 20.8164,5.01367 7.3056,2.65336 11.2232,4.35046 18.8633,12.85937 7.6405,8.50937 17.5642,24.03963 21.6621,38.21289 4.0979,14.17307 3.6372,29.98435 1.2891,44.72657 -2.3482,14.74269 -6.0866,26.65792 -12.9531,39.24023 -6.867,12.58314 -15.6301,23.53937 -29.2403,29.36328 -13.61,5.82385 -34.4393,5.77868 -44.5175,-0.83789 -10.0778,-6.61628 -18.2888,-25.44095 -20.6993,-41.44922 -2.4104,-16.00846 -0.2382,-27.34212 3.3946,-37.98632 3.1158,-9.12961 7.0676,-16.54717 9.998,-21.8125 2.9045,1.09115 5.5739,1.791 8.041,2.19335 -1.3081,2.92555 -2.5746,6.02268 -3.6621,9.44532 -3.567,11.22609 -5.1214,23.55773 -3.2168,35.73242 1.9047,12.17448 6.7999,22.50148 15.293,29.90234 4.2461,3.69993 10.1629,6.77887 16.7168,7.3125 6.5539,0.53364 12.8999,-1.45901 18.084,-4.49218 10.3654,-6.06487 18.5084,-15.90017 24.6758,-28.70899 6.1675,-12.80956 8.9921,-26.49878 9.957,-37.41601 0.9651,-10.91747 -0.5787,-20.21207 -3.6992,-27.32813 -3.1213,-7.11771 -10.0945,-15.57329 -19.9024,-20.10547 -9.8088,-4.53253 -20.3862,-6.34153 -30.6054,-8.37695 -10.2194,-2.03544 -19.3115,-4.55719 -21.4746,-5.88281 -2.1625,-1.32519 -1.7421,-0.67351 -1.7422,-3.45508 -2e-4,-2.78174 2.2843,-9.05717 3.6465,-10.77344 1.3625,-1.71678 2.794,-2.48894 7.2265,-3.86328 3.3245,-1.03076 5.5977,-1.52475 8.6465,-1.61133 z m -115.2988,3.20117 c 5.381,-0.0346 10.3694,0.67167 14.7382,1.83399 9.9852,2.65654 16.1057,7.50904 19.1036,11.96093 2.9982,4.45239 3.2293,9.25142 2.4472,11.59766 -0.7825,2.34735 -4.2006,5.29599 -5.7148,5.80078 -1.5149,0.50503 -3.4731,0.46418 -7.9336,-1.62109 -4.4578,-2.08401 -10.0489,-6.38529 -17.9004,-9.91211 -3.9249,-1.763 -9.494,-3.40732 -15.4902,-2.67969 -5.9963,0.72763 -11.0397,3.48546 -15.1895,6.58985 -8.3018,6.21063 -16.9593,16.08955 -24.0195,30.00976 -7.0597,13.91932 -11.64258,30.14897 -12.81252,45.25781 -1.1698,15.10877 -0.24481,27.35177 8.21292,38.29493 4.2286,5.47113 11.6588,9.16267 17.4961,9.71875 5.8372,0.55607 9.9535,-0.62465 13.0351,-1.41993 6.1616,-1.59013 14.7675,-4.02733 22.211,-11.63086 7.4424,-7.60247 12.7564,-16.06049 9.2226,-29.49609 -1.7672,-6.71954 -6.4015,-11.28117 -9.7695,-13.73242 -3.3681,-2.45125 -6.0066,-3.65145 -7.7168,-4.59961 -0.8378,-0.46452 -0.6736,-0.27444 -0.9688,-0.39258 0.3607,-1.17214 1.095,-5.88543 2.418,-8.29101 1.5878,-2.88692 1.3664,-2.18929 1.9258,-2.30469 0.5585,-0.11523 5.6073,0.22151 11.8809,0.8789 6.2704,0.65706 11.3621,0.54627 17.5488,0.41993 6.1899,-0.12643 12.0683,1.19475 11.2597,0.70703 -0.8071,-0.48683 1.1375,1.75816 1.6387,4.875 0.5013,3.11775 0.2597,4.41597 -0.9433,7.0625 -1.2034,2.6473 -5.5235,8.72772 -9.9883,18.94726 -4.465,10.21977 -8.4125,23.3033 -11.0723,36.92383 -2.3561,12.06538 -4.1137,22.80233 -5.0039,26.52149 -1.3409,-0.24645 -2.6655,-0.62643 -3.9199,-1.30274 v 0.002 c -1.9572,-1.05522 -5.0745,-3.60055 -7.3653,-5.63671 -1.1452,-1.018 -1.7956,-1.78008 -4.0918,-3.33399 -1.148,-0.77695 -2.8735,-1.94098 -6.0468,-2.6875 -3.1734,-0.74652 -7.818,-0.29403 -10.711,0.96875 v 0 c -5.794,2.52938 -5.6308,3.88365 -5.961,4.19531 -0.3301,0.31167 -0.5241,0.50861 -1.4824,1.18946 v 0.002 c -1.9174,1.36242 -5.0654,3.32702 -10.75,4.24219 -5.6851,0.91525 -10.6599,1.41544 -19.375,-6.01563 -8.71352,-7.42977 -20.02611,-24.29206 -21.63279,-46.67383 -1.60666,-22.38165 6.86489,-54.32342 18.8418,-74.87109 11.97699,-20.54777 27.24499,-31.56831 41.41989,-37.0332 7.9741,-3.07429 15.5419,-4.32074 22.461,-4.36524 z m -147.1348,1.48633 c 11.4865,-0.003 24.00488,1.85783 30.16211,3.99609 8.20892,2.85078 7.19844,3.57051 8.05274,6.67774 0.32708,1.18965 0.49274,1.21657 0.65234,1.30469 -0.60079,0.32429 -9.88859,3.83857 -15.68359,4.6289 -5.91314,0.80645 -7.26603,0.4818 -10.23242,0.13282 -1.48412,-0.1746 -3.61556,-0.67018 -7.61329,-0.12696 -3.99772,0.54323 -9.48442,3.36184 -12.37695,6.54297 -5.78602,6.36335 -6.09198,10.2227 -7.51367,13.79297 -1.42317,3.57398 -2.79205,6.98285 -3.8418,10.26758 -1.05006,3.2857 -3.87443,6.81911 0.0273,15.67383 0.97219,2.20641 3.41352,5.69583 6.77343,7.73046 3.35992,2.03464 6.61309,2.45581 8.74414,2.5 4.26211,0.0884 5.90374,-0.65526 8.07032,-1.29101 4.33396,-1.27175 8.7371,-2.65866 10.93359,-2.87109 1.06819,-0.10332 2.2989,-0.0185 3.45312,0.14648 0.0225,0.78432 0.10266,1.1427 0.0391,2.30273 -0.26827,4.89334 -2.21747,9.78534 -2.05469,9.61133 0.16226,-0.17344 -4.96525,2.3957 -11.1875,3.15625 -6.22127,0.76043 -11.77618,0.6403 -15.64453,0.48242 -3.86396,-0.15769 -6.26585,-1.29264 -12.84766,0.90039 -3.29389,1.09754 -6.74704,3.61923 -8.63867,5.72852 -1.89163,2.10929 -2.82043,3.7387 -3.74414,5.31445 -1.84513,3.14761 -4.19331,7.54192 -6.08594,12.86524 -0.94596,2.66069 -1.73629,5.30926 -2.17773,8.55469 -0.44144,3.24542 -2.98656,7.77506 4.13086,16.07421 3.5584,4.14926 9.59795,5.97546 12.82226,6.08789 3.22432,0.11244 4.83438,-0.37764 6.17774,-0.69531 2.68672,-0.63533 4.32403,-1.1995 6.77148,-1.77734 4.89374,-1.15541 14.23946,-2.68293 20.62891,-3.35938 3.48482,-0.36893 5.99072,-0.47368 7.94531,-0.46875 0.17727,1.38196 0.39646,2.79716 0.35156,4.36719 -0.12442,4.35056 -0.0973,5.13356 -2.48633,8.04883 -2.38853,2.9147 -9.39383,8.26482 -17.87304,11.41992 -8.47829,3.15477 -19.84887,4.94392 -31.23242,5.48242 -11.38259,0.53846 -22.2109,-0.38868 -27.92188,-2.20312 -5.71105,-1.81446 -4.90006,-0.96437 -5.56445,-4.58399 -0.66397,-3.61727 0.54499,-15.162 6.78906,-32.39257 6.24401,-17.23037 16.90477,-40.48551 23.35156,-54.73633 6.44679,-14.2508 10.94153,-17.71719 9.4043,-30.41992 -0.76904,-6.35491 -5.66001,-11.94003 -7.83789,-13.73438 -2.17788,-1.79434 -2.64682,-2.04535 -3.18555,-2.58398 -1.07662,-1.07642 -2.97587,-4.67712 -3.02148,-5.59961 -0.0454,-0.91916 0.17617,-3.50367 4.77148,-7.16016 4.59557,-3.65668 14.06192,-7.91292 27.72071,-9.27148 3.41436,-0.33961 7.1629,-0.51447 10.99218,-0.51563 z m -103.19922,5.15039 c 1.02053,0.025 2.15077,0.26412 3.24024,0.57422 -0.10746,1.64895 -0.53854,4.45547 -1.86524,9.51758 -2.75306,10.50328 -9.63523,29.08739 -17.9375,47.06836 -8.30146,17.98002 -18.16901,35.86777 -23.03906,45.95508 -2.8e-4,5.9e-4 -0.002,10e-4 -0.002,0.002 l -11.21094,23.22266 h 9.71485 c 1.60467,2.47002 3.77746,4.84307 6.3164,6.14257 4.38305,2.24338 7.69569,1.96575 9.65039,1.76172 3.90644,-0.40774 4.75379,-1.08062 5.48047,-1.33398 2.90948,-1.0116 5.9943,-2.00427 8.83984,-2.36719 2.84591,-0.36277 4.42505,0.21712 4.22071,0.0898 v 0.002 c -0.20288,-0.12633 1.36604,1.70856 1.60156,2.99023 0.2354,1.28106 0.33786,2.93463 -2.30078,7.28711 h 0.002 c -2.63818,4.35146 -6.23176,8.70625 -15.87695,12.63477 -9.64426,3.92813 -27.1271,6.80191 -38.92383,5.84375 -11.28304,-0.91613 -19.60884,-5.60946 -21.57422,-7.24024 0.027,-0.22871 -0.0283,0.14973 0.19727,-0.75976 0.8885,-3.58312 2.59244,-6.76801 3.19922,-7.47266 0.60539,-0.70222 2.92412,-1.58281 8.39257,-6.66016 2.73301,-2.53753 5.73658,-7.51116 7.17969,-11.45312 1.44296,-3.94155 2.80046,-8.62899 5.33789,-17.01758 v -0.002 c 5.07655,-16.78176 14.73469,-47.95601 23.94336,-67.83789 9.20902,-19.88228 18.15474,-29.74887 24.67774,-35.33985 6.52216,-5.5905 8.0915,-5.49404 10,-5.59765 0.23894,-0.013 0.48583,-0.0159 0.73632,-0.01 z m 318.57622,24.30469 c 0.1782,0.32027 0.3905,0.62191 0.5781,0.9375 -0.3966,0.43179 -0.8385,0.88428 -1.166,1.28125 0.1967,-0.73965 0.433,-1.47355 0.5879,-2.21875 z m -288.20903,1.77539 c 2.31165,5.61006 5.55106,10.08635 8.84375,13.48633 -0.90357,2.77306 -2.11997,6.30025 -4.34765,11.22461 -5.97507,13.20805 -15.87178,34.75257 -22.91016,53.48633 -0.50642,-0.35203 -0.8995,-0.79168 -1.43164,-1.12305 v 0.002 c -3.87981,-2.41649 -7.77066,-3.64223 -11.53125,-4.35742 4.30379,-8.34854 9.23535,-18.0998 13.83789,-28.06836 7.41809,-16.06604 13.5383,-31.76568 17.53906,-44.65039 z m 117.65039,13.73242 c -0.19648,0.48132 -0.35607,0.98664 -0.54883,1.4707 -0.30536,-0.3002 -0.595,-0.6094 -0.91211,-0.89648 0.47968,-0.14912 0.97743,-0.40883 1.46094,-0.57422 z m 159.76364,4.99414 c -0.3956,0.72871 -0.7182,1.32696 -1.1464,2.14063 -0.1794,-0.16789 -0.3502,-0.33846 -0.5352,-0.50391 0.5748,-0.52873 1.1354,-1.07191 1.6816,-1.63672 z m -191.70895,5.97461 c -0.0206,1.65993 -0.6785,1.91306 -0.43164,1.14063 0.0593,-0.18548 0.3408,-0.88043 0.43164,-1.14063 z m 270.44535,2.81836 c 3.1634,1.46179 2.6198,1.22285 3.6757,3.63086 1.0877,2.48021 1.7324,4.29587 1.0977,11.47656 -0.6347,7.18095 -3.1977,18.57892 -6.8789,26.22461 -3.0316,6.29636 -7.6224,11.29952 -10.3145,13.58594 -1.1797,-1.80386 -2.6795,-4.57716 -3.3027,-8.56055 -0.8741,-5.58757 -0.073,-14.13464 2.084,-20.92383 2.1573,-6.78943 5.8897,-13.1879 8.5273,-17.3164 1.3183,-2.06337 2.1939,-3.33591 2.9786,-4.49805 0.5451,-0.80744 1.2792,-1.77967 2.1328,-3.61914 z m -18.1797,7.51172 c 0.037,0.002 0.2097,0.008 0.2441,0.01 0.4641,0.0274 0.413,0.11874 -0.2441,-0.01 z m -147.8438,43.94727 c 0.6033,0.42475 1.0845,0.69272 1.6426,1.04687 -0.3942,0.15971 -0.9302,0.31469 -1.3965,0.47852 -0.091,-0.4346 -0.1573,-1.03776 -0.2461,-1.52539 z m -127.34568,10.08984 c 0.0874,1.44131 -0.59704,2.00965 -0.60742,2.08594 -0.0207,0.1521 0.20062,-0.9465 0.60156,-2.07422 0.001,-0.004 0.005,-0.008 0.006,-0.0117 z m -104.56836,4.21484 c -0.17548,1.20903 -0.61665,1.4021 -0.58008,1.29883 0.0244,-0.0688 0.42734,-0.9386 0.58008,-1.29883 z m 255.12504,60.84766 c -0.087,0.0894 -0.8812,0.45199 -1.1036,0.60352 0.1068,-0.0985 0.3797,-0.29889 0.4727,-0.38672 0.4871,-0.45983 0.9401,-0.53567 0.6309,-0.2168 z"
             id="path3242" />
          <path
             style="color:#000000;font-style:normal;font-variant:normal;font-weight:normal;font-stretch:normal;font-size:medium;line-height:normal;font-family:sans-serif;font-variant-ligatures:normal;font-variant-position:normal;font-variant-caps:normal;font-variant-numeric:normal;font-variant-alternates:normal;font-variant-east-asian:normal;font-feature-settings:normal;font-variation-settings:normal;text-indent:0;text-align:start;text-decoration:none;text-decoration-line:none;text-decoration-style:solid;text-decoration-color:#000000;letter-spacing:normal;word-spacing:normal;text-transform:none;writing-mode:lr-tb;direction:ltr;text-orientation:mixed;dominant-baseline:auto;baseline-shift:baseline;text-anchor:start;white-space:normal;shape-padding:0;shape-margin:0;inline-size:0;clip-rule:nonzero;display:inline;overflow:visible;visibility:visible;isolation:auto;mix-blend-mode:normal;color-interpolation:sRGB;color-interpolation-filters:linearRGB;solid-color:#000000;solid-opacity:1;vector-effect:none;fill:#ffffff;fill-opacity:1;fill-rule:nonzero;stroke:none;stroke-width:32.3717;stroke-linecap:butt;stroke-linejoin:miter;stroke-miterlimit:4;stroke-dasharray:none;stroke-dashoffset:0;stroke-opacity:1;paint-order:stroke fill markers;color-rendering:auto;image-rendering:auto;shape-rendering:auto;text-rendering:auto;enable-background:accumulate;stop-color:#000000;stop-opacity:1"
             d="m 1176.3828,292.46484 c -4.8595,0.138 -8.9082,1.06942 -12.9805,2.33204 -5.4296,1.68348 -10.9019,3.95595 -15.1113,9.25976 -4.2094,5.30381 -7.1547,13.6381 -7.1543,20.83594 4e-4,7.19783 2.9466,13.25776 9.4707,17.25586 6.5242,3.9981 16.6259,5.93471 26.7696,7.95508 10.1436,2.02036 20.3283,4.12428 26.9785,7.19726 6.6501,3.07298 9.765,7.11398 11.8691,11.91211 2.1041,4.79813 3.1983,10.35326 2.3984,19.40234 -0.7998,9.04909 -3.4935,21.59269 -8.4179,31.82032 -4.9245,10.22762 -12.0791,18.13999 -18.2656,21.75976 -6.1866,3.61977 -11.4061,2.94522 -15.9942,-1.05273 -4.588,-3.99796 -8.5442,-11.32005 -9.9336,-20.20117 -1.3894,-8.88113 -0.2117,-19.32049 2.6504,-28.32813 2.8621,-9.00764 7.4082,-16.58307 10.3125,-21.1289 2.9043,-4.54584 4.167,-6.06043 4.4199,-6.90235 0.2529,-0.84192 -0.5036,-1.01017 -2.6504,-1.13672 -2.1467,-0.12654 -5.6829,-0.21024 -10.9863,-0.46289 -5.3034,-0.25265 -12.3739,-0.67421 -16.457,-2.4414 -4.0831,-1.7672 -5.1781,-4.88145 -6.3985,-6.43946 -1.2203,-1.55801 -2.5677,-1.55772 -3.873,-0.29492 -1.3053,1.2628 -2.5679,3.78828 -3.1992,5.05078 -0.6313,1.2625 -0.63,1.26352 -3.4922,6.31446 -2.8622,5.05093 -8.5879,15.15169 -12.7969,27.48437 -4.209,12.33268 -6.9023,26.89479 -4.082,45.625 2.8203,18.73021 11.1544,41.62752 27.8222,52.57031 16.6679,10.94279 41.6693,9.93193 59.7676,2.1875 18.0983,-7.74442 29.2935,-22.22203 37.0801,-36.49023 7.7866,-14.2682 12.1629,-28.32683 14.7305,-44.44727 2.5676,-16.12044 3.3257,-34.30225 -1.7246,-51.76953 -5.0504,-17.46728 -15.9085,-34.2188 -25.168,-44.53125 -9.2595,-10.31245 -16.9208,-14.18512 -25.3809,-17.25781 -8.4601,-3.07269 -17.7191,-5.34409 -25.0429,-5.93359 -1.831,-0.14738 -3.5403,-0.19054 -5.1602,-0.14454 z m -114.9433,3.19532 c -8.8091,0.0566 -18.3541,1.6611 -28.1797,5.44922 -17.4678,6.73442 -35.81841,20.37136 -49.58207,43.98437 -13.76365,23.61301 -22.9387,57.1998 -21.00195,84.17969 1.93675,26.97988 14.98494,47.35235 27.27539,57.83203 12.29043,10.47968 23.82103,11.06875 32.44923,9.67969 8.6281,-1.38906 14.3542,-4.75666 17.5527,-7.0293 3.1986,-2.27264 3.8708,-3.45181 4.5449,-3.74609 0.6742,-0.29429 1.3482,0.29599 3.6211,2.3164 2.273,2.02042 6.1443,5.47047 10.4375,7.78516 4.2933,2.31468 9.0067,3.49332 13.7207,3.53515 4.7141,0.0418 9.4283,-1.05186 12.3321,-7.9121 2.9038,-6.86025 3.9982,-19.48734 6.4394,-31.98829 2.4412,-12.50095 6.2294,-24.87418 10.0176,-33.54492 3.7882,-8.67073 7.5757,-13.63787 9.8906,-18.73047 2.315,-5.09259 3.1572,-10.31132 2.1895,-16.33008 -0.9678,-6.01875 -3.7462,-12.83844 -9.2598,-16.16406 -5.5136,-3.32562 -13.7619,-3.15566 -19.9492,-3.02929 -6.1873,0.12636 -10.312,0.21097 -15.5313,-0.33594 -5.2192,-0.54691 -11.534,-1.72701 -16.8378,-0.63281 -5.3039,1.09419 -9.5968,4.46234 -12.8379,10.35546 -3.2411,5.89313 -5.4298,14.31034 -4.461,19.90821 0.9688,5.59786 5.0947,8.37552 9.3457,10.73242 4.2511,2.35689 8.6281,4.29434 9.6797,8.29297 1.0517,3.99863 -1.2206,10.0584 -5.1347,14.05664 -3.9141,3.99824 -9.4705,5.93437 -14.6895,7.28125 -5.219,1.34688 -10.1017,2.10394 -13.6797,-2.52539 -3.5779,-4.62933 -5.8507,-14.64545 -4.8828,-27.14649 0.968,-12.50104 5.1766,-27.48425 11.1113,-39.18554 5.9348,-11.70129 13.5967,-20.11991 19.2793,-24.3711 5.6827,-4.25118 9.3848,-4.33649 14.3516,-2.10547 4.9668,2.23103 11.196,6.77844 17.6777,9.8086 6.4817,3.03015 13.2163,4.54543 19.9082,2.31445 6.692,-2.23098 13.3417,-8.20896 15.9512,-16.03711 2.6095,-7.82814 1.1784,-17.50804 -4.377,-25.75781 -5.5553,-8.24977 -15.235,-15.0687 -28.3671,-18.5625 -5.7454,-1.52854 -12.1525,-2.42101 -19.0039,-2.37695 z m -147.0352,1.48632 c -4.31292,10e-4 -8.57015,0.19589 -12.58985,0.59571 -16.07879,1.59927 -28.36809,6.48127 -36.19726,12.71093 -7.82917,6.22967 -11.19654,13.80605 -10.85938,20.625 0.33716,6.81896 4.37668,12.87926 7.74414,16.2461 3.36746,3.36684 6.06226,4.04036 6.39844,6.81836 0.33618,2.77799 -1.68438,7.66054 -8.08203,21.80273 -6.39765,14.14219 -17.172,37.5431 -23.82227,55.89453 -6.65026,18.35144 -9.17645,31.65231 -7.49218,40.82813 1.68426,9.17581 7.57681,14.22622 16.58398,17.08789 9.00717,2.86167 21.12936,3.53466 33.58789,2.94531 12.45853,-0.58935 25.25244,-2.43988 36.11133,-6.48047 10.85889,-4.04058 19.78167,-10.26968 24.74805,-16.33008 4.96637,-6.06039 5.97796,-11.95319 6.14648,-17.8457 0.16852,-5.89251 -0.50441,-11.78633 -2.1875,-15.32226 -1.68309,-3.53594 -4.37786,-4.71323 -8.16602,-5.30274 -3.78815,-0.5895 -8.67085,-0.58956 -15.82617,0.16797 -7.15531,0.75753 -16.5833,2.27208 -22.64453,3.70313 -6.06123,1.43104 -8.75523,2.77776 -9.76562,1.5996 -1.01039,-1.17815 -0.33714,-4.88151 1.00976,-8.66992 1.34691,-3.7884 3.3677,-7.6602 4.79883,-10.10156 1.43113,-2.44136 2.27389,-3.45214 3.53711,-3.87305 1.26322,-0.4209 2.94561,-0.25232 7.07031,-0.084 4.1247,0.16834 10.69167,0.33812 18.26758,-0.58789 7.57592,-0.92601 16.16295,-2.94738 21.04492,-8.16602 4.88197,-5.21864 6.05959,-13.63605 6.39649,-19.78125 0.33689,-6.1452 -0.16772,-10.01726 -1.34571,-12.62695 -1.17798,-2.60969 -3.02927,-3.95589 -6.39648,-5.13477 -3.36721,-1.17887 -8.25122,-2.19035 -13.4707,-1.68554 -5.21948,0.50481 -10.7752,2.52495 -13.93164,3.45117 -3.15645,0.92622 -3.9129,0.75858 -4.21875,0.0645 -0.30586,-0.69412 -0.15841,-1.91411 0.57812,-4.21875 0.73653,-2.30464 2.06144,-5.69249 3.46094,-9.20703 1.3995,-3.51454 2.8722,-7.15606 4.45117,-8.89258 1.57897,-1.73651 3.26299,-1.56716 6.125,-1.23047 2.86201,0.3367 6.90288,0.84035 14.31055,-0.16992 7.40766,-1.01027 18.1823,-3.53476 23.90625,-8.16406 5.72394,-4.6293 6.39643,-11.36341 4.54492,-18.09766 -1.85151,-6.73424 -6.22795,-13.46815 -18.34961,-17.67773 -9.09124,-3.15718 -22.53782,-4.89451 -35.47656,-4.89063 z m -102.79883,5.1543 c -0.65966,-0.0161 -1.33101,-0.008 -2.00977,0.0293 -5.43004,0.2948 -11.40629,2.39921 -19.65625,9.4707 -8.25033,7.0715 -18.77244,19.1075 -28.83203,40.82617 -10.05959,21.71906 -19.65513,53.11918 -24.74804,69.95508 -5.09254,16.83553 -5.68215,19.10853 -8.03907,21.29688 -2.35691,2.18834 -6.48163,4.29114 -9.63867,7.95312 -3.15666,3.66236 -5.3457,8.88305 -6.65039,14.14453 -1.30469,5.26148 -1.72565,10.56384 3.78906,15.95117 5.51471,5.38734 16.96239,10.8581 31.98828,12.07813 15.02552,1.22041 33.62892,-1.80913 46.33985,-6.98633 12.71093,-5.1772 19.52868,-12.50039 23.61133,-19.23437 4.08264,-6.73437 5.43074,-12.87942 4.3789,-18.60352 -1.05184,-5.72409 -4.50311,-11.02636 -8.96484,-13.80469 -4.46136,-2.77871 -9.932,-3.03182 -14.82422,-2.4082 -4.8926,0.624 -9.20481,2.12488 -12.10938,3.13477 -2.90418,1.01026 -4.40083,1.52961 -0.0566,-7.4668 h -0.002 c 4.34306,-8.99603 14.53187,-27.52111 23.16016,-46.20899 8.62866,-18.68787 15.69906,-37.54401 18.89843,-49.75 3.199,-12.20598 2.52668,-17.76206 1.30665,-21.25585 -1.22041,-3.49342 -2.98923,-4.9248 -6.31446,-6.39844 -2.90924,-1.2891 -7.00934,-2.60974 -11.62695,-2.72266 z"
             id="path3244" />
        </g>
      </g>
      <g
         id="g3321"
         transform="translate(2.4568452)"
         style="fill:#ffffff">
        <path
           d="m 1224.9593,1102.8861 c 0.4376,0.069 0.5873,0.311 0.5873,0.5528 0,0.3916 -0.2764,0.668 -1.2899,0.668 -0.5067,0 -0.8638,-0.058 -1.1056,-0.1727 -0.2304,-0.1267 -0.334,-0.311 -0.3456,-0.5874 h -3.9158 c 0.012,2.4186 2.7411,2.7641 5.2403,2.7641 3.651,0 5.2864,-0.9444 5.2864,-2.9484 0,-1.3936 -1.0135,-2.1537 -2.6489,-2.3956 l -3.8813,-0.5758 c -0.3225,-0.046 -0.4262,-0.1958 -0.4262,-0.4261 0,-0.3456 0.334,-0.5874 1.3015,-0.5874 0.357,0 0.7256,0.046 1.0135,0.1727 0.2994,0.1152 0.4952,0.3225 0.4952,0.6565 h 3.7777 c -0.1152,-1.7391 -1.624,-2.695 -5.2864,-2.695 -2.672,0 -4.7566,0.5758 -4.7566,2.7065 0,1.1517 0.6564,2.0731 2.2458,2.315 z"
           style="font-style:normal;font-variant:normal;font-weight:900;font-stretch:expanded;font-size:11.5172px;line-height:1.25;font-family:'Helvetica Neue LT Std';-inkscape-font-specification:'Helvetica Neue LT Std Heavy Expanded';letter-spacing:0px;word-spacing:0px;fill:#ffffff;stroke-width:0.392632"
           id="path3296" />
        <path
           d="m 1238.4728,1105.823 h 3.2478 v -2.315 l 3.651,-5.9083 h -3.7086 l -1.5663,3.2248 -1.5664,-3.2248 h -3.7085 l 3.651,5.9083 z"
           style="font-style:normal;font-variant:normal;font-weight:900;font-stretch:expanded;font-size:11.5172px;line-height:1.25;font-family:'Helvetica Neue LT Std';-inkscape-font-specification:'Helvetica Neue LT Std Heavy Expanded';letter-spacing:0px;word-spacing:0px;fill:#ffffff;stroke-width:0.392632"
           id="path3298" />
        <path
           d="m 1256.8464,1102.8861 c 0.4377,0.069 0.5874,0.311 0.5874,0.5528 0,0.3916 -0.2764,0.668 -1.2899,0.668 -0.5068,0 -0.8638,-0.058 -1.1057,-0.1727 -0.2303,-0.1267 -0.334,-0.311 -0.3455,-0.5874 h -3.9159 c 0.012,2.4186 2.7411,2.7641 5.2404,2.7641 3.6509,0 5.2864,-0.9444 5.2864,-2.9484 0,-1.3936 -1.0136,-2.1537 -2.649,-2.3956 l -3.8813,-0.5758 c -0.3225,-0.046 -0.4261,-0.1958 -0.4261,-0.4261 0,-0.3456 0.334,-0.5874 1.3014,-0.5874 0.357,0 0.7256,0.046 1.0135,0.1727 0.2995,0.1152 0.4953,0.3225 0.4953,0.6565 h 3.7776 c -0.1152,-1.7391 -1.6239,-2.695 -5.2864,-2.695 -2.672,0 -4.7566,0.5758 -4.7566,2.7065 0,1.1517 0.6565,2.0731 2.2459,2.315 z"
           style="font-style:normal;font-variant:normal;font-weight:900;font-stretch:expanded;font-size:11.5172px;line-height:1.25;font-family:'Helvetica Neue LT Std';-inkscape-font-specification:'Helvetica Neue LT Std Heavy Expanded';letter-spacing:0px;word-spacing:0px;fill:#ffffff;stroke-width:0.392632"
           id="path3300" />
        <path
           d="m 1270.1526,1105.823 h 3.2478 v -6.1502 h 3.006 v -2.0731 h -9.2598 v 2.0731 h 3.006 z"
           style="font-style:normal;font-variant:normal;font-weight:900;font-stretch:expanded;font-size:11.5172px;line-height:1.25;font-family:'Helvetica Neue LT Std';-inkscape-font-specification:'Helvetica Neue LT Std Heavy Expanded';letter-spacing:0px;word-spacing:0px;fill:#ffffff;stroke-width:0.392632"
           id="path3302" />
        <path
           d="m 1282.2999,1105.823 h 8.7416 v -2.004 h -5.4937 v -1.1056 h 5.1021 v -2.004 h -5.1021 v -1.1057 h 5.4937 v -2.004 h -8.7416 z"
           style="font-style:normal;font-variant:normal;font-weight:900;font-stretch:expanded;font-size:11.5172px;line-height:1.25;font-family:'Helvetica Neue LT Std';-inkscape-font-specification:'Helvetica Neue LT Std Heavy Expanded';letter-spacing:0px;word-spacing:0px;fill:#ffffff;stroke-width:0.392632"
           id="path3304" />
        <path
           d="m 1298.193,1105.823 h 2.9484 v -5.8738 h 0.023 l 1.7276,5.8738 h 2.4647 l 1.7276,-5.8738 h 0.023 v 5.8738 h 2.9484 v -8.2233 h -4.5723 l -1.3475,4.7797 h -0.023 l -1.3475,-4.7797 h -4.5723 z"
           style="font-style:normal;font-variant:normal;font-weight:900;font-stretch:expanded;font-size:11.5172px;line-height:1.25;font-family:'Helvetica Neue LT Std';-inkscape-font-specification:'Helvetica Neue LT Std Heavy Expanded';letter-spacing:0px;word-spacing:0px;fill:#ffffff;stroke-width:0.392632"
           id="path3306" />
      </g>
    </g>
  </g>
  <style
     type="text/css"
     id="style1382">
	.st0{fill:#4E5E8F;}
	.st1{fill:#347742;}
	.st2{fill:#B33833;}
	.st3{fill:#463C61;}
	.st4{fill:#B02D33;}
	.st5{fill:#468499;}
	.st6{fill:#B7512B;}
	.st7{fill:#38578D;}
</style>
</svg>
